<?xml version="1.0" standalone="no"?>
<!DOCTYPE svg PUBLIC "-//W3C//DTD SVG 20010904//EN"
 "http://www.w3.org/TR/2001/REC-SVG-20010904/DTD/svg10.dtd">
<svg version="1.0" xmlns="http://www.w3.org/2000/svg"
 width="237.000000pt" height="238.000000pt" viewBox="0 0 237.000000 238.000000"
 preserveAspectRatio="xMidYMid meet">
<metadata>
Created by potrace 1.10, written by Peter Selinger 2001-2011
</metadata>
<g transform="translate(0.000000,238.000000) scale(0.100000,-0.100000)"
fill="#ffffff" stroke="none">
<path d="M1078 2364 c-3 -3 16 -52 42 -109 l49 -103 -373 -839 c-205 -461
-380 -855 -389 -874 -9 -18 -52 -115 -95 -214 l-79 -180 -114 -5 c-80 -4 -115
-9 -117 -18 -1 -9 240 -12 1183 -12 1035 0 1185 2 1185 15 0 12 -22 15 -116
17 l-115 3 -36 80 c-19 44 -59 134 -88 200 -29 66 -222 500 -429 965 -207 465
-376 852 -376 862 0 9 20 59 44 112 24 52 42 97 38 100 -12 13 -31 5 -38 -16
-3 -12 -21 -52 -38 -90 l-32 -67 -39 89 c-34 81 -50 101 -67 84z m122 -276 c0
-5 -4 -8 -10 -8 -5 0 -10 10 -10 23 0 18 2 19 10 7 5 -8 10 -18 10 -22z m-101
-918 l-72 -112 -107 107 -107 107 176 396 176 397 3 -392 2 -392 -71 -111z
m290 483 l169 -382 -107 -105 c-123 -122 -100 -126 -195 30 l-56 93 1 393 c0
240 4 385 9 373 5 -11 85 -192 179 -402z m-169 -455 c0 -6 -6 -8 -14 -5 -8 3
-20 -1 -26 -9 -7 -8 -21 -14 -31 -14 -18 0 -17 4 8 41 l27 41 18 -22 c10 -12
18 -27 18 -32z m-300 -83 c62 -63 114 -114 115 -113 1 2 17 26 35 53 19 28 44
60 56 71 l23 22 3 -27 c4 -25 4 -25 23 12 18 36 35 49 35 26 0 -6 6 -9 13 -6
8 3 32 -25 63 -74 27 -43 51 -78 55 -79 3 0 56 52 119 115 62 63 114 114 116
113 1 -2 75 -167 164 -368 89 -201 171 -382 181 -403 l19 -37 -248 0 -249 0
-17 43 c-54 143 -219 209 -354 141 -62 -31 -109 -84 -125 -141 l-11 -43 -252
0 -252 0 27 58 c15 31 97 213 181 405 85 191 157 347 160 347 3 0 57 -52 120
-115z m370 -548 c26 -13 58 -41 75 -66 l30 -43 3 -209 3 -209 -215 0 -216 0 0
193 c0 186 1 195 25 243 56 112 178 150 295 91z m-360 -357 l0 -170 -331 0
c-308 0 -331 1 -325 17 4 9 37 86 74 170 l67 153 258 0 257 0 0 -170z m1069
67 c25 -56 59 -132 77 -169 l32 -68 -334 0 -334 0 0 170 0 170 258 0 257 0 44
-103z"/>
<path d="M500 238 c-30 -22 -62 -43 -70 -48 -12 -7 -13 -11 -3 -21 11 -10 24
-5 71 28 l57 40 58 -44 58 -45 32 25 c85 66 102 85 90 98 -9 9 -24 1 -67 -36
l-56 -47 -47 39 c-27 22 -52 42 -58 45 -5 3 -35 -12 -65 -34z"/>
<path d="M1583 269 c-10 -10 13 -33 114 -112 9 -6 30 5 70 36 l57 46 43 -32
c72 -53 71 -53 85 -39 6 6 10 13 7 15 -2 2 -34 24 -71 50 l-66 47 -57 -46 -56
-46 -53 46 c-61 51 -58 50 -73 35z"/>
<path d="M1516 2226 c-124 -46 -176 -203 -102 -313 42 -62 118 -98 193 -90
132 14 216 137 178 263 -34 114 -160 180 -269 140z m139 -35 c82 -37 126 -123
104 -203 -16 -62 -84 -124 -143 -133 -80 -12 -154 27 -187 99 -55 120 29 249
166 255 11 0 38 -8 60 -18z"/>
</g>
</svg>
