<?xml version="1.0" standalone="no"?>
<!DOCTYPE svg PUBLIC "-//W3C//DTD SVG 20010904//EN"
 "http://www.w3.org/TR/2001/REC-SVG-20010904/DTD/svg10.dtd">
<svg version="1.0" xmlns="http://www.w3.org/2000/svg"
 width="178.000000pt" height="178.000000pt" viewBox="0 0 178.000000 178.000000"
 preserveAspectRatio="xMidYMid meet">
<metadata>
Created by potrace 1.10, written by Peter Selinger 2001-2011
</metadata>
<g transform="translate(0.000000,178.000000) scale(0.100000,-0.100000)"
fill="#faf0e6" stroke="none">
<path d="M812 1771 c-9 -6 -4 -26 22 -83 l35 -76 -136 -304 c-74 -167 -161
-361 -192 -433 -32 -71 -129 -291 -216 -488 l-159 -357 -83 0 c-67 0 -83 -3
-83 -15 0 -12 16 -15 84 -15 47 0 88 5 91 10 4 7 12 7 25 0 25 -13 487 -13
495 0 4 7 12 7 25 0 26 -14 323 -13 337 1 8 8 13 8 17 0 10 -15 488 -15 503 0
8 8 13 8 17 0 4 -7 42 -11 92 -11 68 0 84 3 84 15 0 12 -16 15 -84 15 -71 0
-84 3 -89 17 -5 19 -4 15 -410 929 -153 342 -277 628 -277 637 0 8 14 45 31
82 26 55 29 69 18 76 -11 7 -21 -7 -45 -56 l-30 -65 -24 58 c-27 68 -31 73
-48 63z m85 -228 c-11 -10 -26 8 -20 23 5 15 7 14 15 -1 6 -9 7 -19 5 -22z
m-50 -612 c-12 -20 -28 -47 -35 -61 -7 -14 -21 -35 -30 -48 l-17 -22 -76 77
-77 78 124 275 c67 151 124 282 126 290 1 8 4 -113 5 -269 3 -282 3 -285 -20
-320z m197 284 l116 -259 -77 -78 -77 -78 -53 83 -53 82 1 285 c1 246 2 281
14 255 7 -16 65 -147 129 -290z m-134 -314 c0 -8 -52 -32 -58 -26 -3 2 3 16
12 30 14 21 20 24 32 14 8 -6 14 -14 14 -18z m-135 -159 c1 2 11 19 23 39 12
19 30 44 42 54 20 18 20 18 20 -6 1 -23 2 -23 18 6 10 18 23 29 32 27 8 -2 32
-30 52 -62 l36 -59 89 90 88 90 130 -292 c72 -160 132 -296 133 -300 2 -5 -77
-9 -177 -9 l-180 0 -20 44 c-23 53 -85 101 -140 111 -84 14 -173 -32 -211
-109 l-21 -45 -180 -3 c-98 -2 -178 0 -177 4 2 3 61 139 133 302 l130 295 89
-89 c49 -50 90 -89 91 -88z m184 -322 c22 -11 50 -36 62 -57 22 -34 24 -52 28
-185 l3 -148 -161 0 -161 0 0 146 c0 170 9 200 74 239 50 30 103 32 155 5z
m-269 -265 l0 -125 -244 0 -244 0 56 125 55 125 189 0 188 0 0 -125z m826 0
c30 -65 54 -121 54 -122 0 -2 -110 -3 -245 -3 l-245 0 0 125 0 125 191 -2 191
-3 54 -120z"/>
<path d="M358 174 c-30 -22 -45 -40 -41 -50 7 -19 9 -18 54 17 l39 31 48 -35
c36 -27 50 -32 58 -23 6 7 29 27 50 44 29 24 35 35 27 43 -9 9 -22 4 -52 -21
l-41 -32 -42 31 c-23 17 -44 31 -47 31 -4 0 -27 -16 -53 -36z"/>
<path d="M1184 199 c-4 -7 13 -29 42 -54 l49 -43 43 35 43 35 44 -31 c36 -26
45 -28 55 -16 9 11 1 21 -44 51 l-55 36 -40 -31 c-43 -35 -58 -33 -95 8 -22
24 -32 26 -42 10z"/>
<path d="M1111 1663 c-75 -37 -105 -140 -64 -219 61 -119 240 -106 288 20 52
136 -92 264 -224 199z m160 -49 c43 -41 55 -95 32 -142 -22 -44 -75 -82 -115
-82 -94 0 -157 106 -113 191 38 73 137 89 196 33z"/>
</g>
</svg>
