<svg id="splitsvg" version="1.1" xmlns="http://www.w3.org/2000/svg" xmlns:xlink="http://www.w3.org/1999/xlink" width="1380" height="868"><g id="svgg"><path id="path0" d="M185.600 0.584 C 185.600 1.039,184.873 1.193,182.300 1.284 C 179.254 1.391,178.990 1.467,178.876 2.274 C 178.791 2.869,178.377 3.229,177.576 3.405 L 176.400 3.664 176.400 6.832 L 176.400 10.000 177.580 10.000 C 178.736 10.000,178.763 10.047,178.880 12.300 C 178.986 14.337,179.103 14.615,179.900 14.728 C 180.712 14.843,180.801 15.078,180.805 17.128 C 180.813 20.369,181.107 21.200,182.247 21.200 C 183.131 21.200,183.200 21.353,183.200 23.312 C 183.200 25.292,183.275 25.453,184.400 25.878 C 185.517 26.299,185.600 26.472,185.600 28.365 C 185.600 30.269,185.664 30.400,186.600 30.400 C 187.545 30.400,187.600 30.520,187.600 32.600 C 187.600 34.778,187.612 34.800,188.800 34.800 L 190.000 34.800 190.000 40.373 L 190.000 45.947 188.900 46.073 C 187.876 46.191,187.792 46.343,187.680 48.275 C 187.576 50.063,187.439 50.367,186.680 50.475 C 186.079 50.560,185.766 50.917,185.692 51.600 C 185.346 54.813,185.183 55.200,184.182 55.200 C 183.258 55.200,183.200 55.331,183.200 57.400 C 183.200 59.342,183.105 59.600,182.390 59.600 C 181.320 59.600,180.800 61.046,180.800 64.026 C 180.800 66.292,180.754 66.400,179.800 66.400 C 178.855 66.400,178.800 66.520,178.800 68.600 C 178.800 70.778,178.788 70.800,177.600 70.800 C 176.412 70.800,176.400 70.822,176.400 73.000 C 176.400 74.911,176.298 75.200,175.624 75.200 C 174.615 75.200,174.413 75.574,174.129 77.970 C 173.936 79.599,173.740 79.980,173.047 80.079 C 172.280 80.189,172.189 80.492,172.084 83.275 C 171.970 86.287,171.945 86.353,170.884 86.475 C 169.862 86.593,169.793 86.732,169.680 88.900 C 169.568 91.042,169.493 91.200,168.580 91.200 C 167.660 91.200,167.600 91.334,167.600 93.373 C 167.600 95.447,167.550 95.553,166.500 95.673 C 165.476 95.791,165.392 95.943,165.280 97.875 C 165.177 99.650,165.035 99.968,164.296 100.075 C 163.261 100.225,162.895 101.338,162.840 104.500 C 162.802 106.676,162.746 106.800,161.800 106.800 C 160.856 106.800,160.800 106.922,160.800 108.973 C 160.800 111.047,160.750 111.153,159.700 111.273 C 158.677 111.391,158.592 111.544,158.480 113.462 C 158.377 115.240,158.232 115.555,157.427 115.757 C 156.639 115.955,156.451 116.333,156.221 118.171 C 155.992 120.006,155.810 120.371,155.074 120.476 C 154.274 120.589,154.190 120.860,154.084 123.675 C 153.970 126.687,153.945 126.753,152.884 126.875 C 151.862 126.993,151.793 127.132,151.680 129.300 C 151.568 131.442,151.493 131.600,150.580 131.600 C 149.660 131.600,149.600 131.734,149.600 133.773 C 149.600 135.847,149.550 135.953,148.500 136.073 C 147.476 136.191,147.392 136.343,147.280 138.275 C 147.177 140.061,147.038 140.367,146.283 140.475 C 145.283 140.617,144.922 141.780,144.847 145.100 C 144.803 147.061,144.734 147.200,143.800 147.200 C 142.856 147.200,142.800 147.322,142.800 149.373 C 142.800 151.447,142.750 151.553,141.700 151.673 C 140.674 151.791,140.592 151.942,140.479 153.898 C 140.373 155.743,140.241 156.025,139.379 156.241 C 138.494 156.463,138.400 156.690,138.400 158.617 C 138.400 160.643,138.346 160.753,137.300 160.873 C 136.218 160.998,136.198 161.051,136.084 164.072 C 135.968 167.115,135.956 167.146,134.784 167.404 C 133.650 167.653,133.600 167.755,133.600 169.832 C 133.600 171.878,133.544 172.000,132.600 172.000 C 131.656 172.000,131.600 172.122,131.600 174.173 C 131.600 176.247,131.550 176.353,130.500 176.473 C 129.476 176.591,129.392 176.743,129.280 178.675 C 129.177 180.461,129.038 180.767,128.283 180.875 C 127.283 181.017,126.922 182.180,126.847 185.500 C 126.803 187.461,126.734 187.600,125.800 187.600 C 124.856 187.600,124.800 187.722,124.800 189.773 C 124.800 191.847,124.750 191.953,123.700 192.073 C 122.659 192.193,122.594 192.323,122.480 194.500 C 122.368 196.642,122.293 196.800,121.380 196.800 C 120.459 196.800,120.400 196.932,120.400 199.000 C 120.400 201.054,120.336 201.200,119.443 201.200 C 118.224 201.200,118.000 201.825,118.000 205.233 L 118.000 208.000 116.800 208.000 C 115.612 208.000,115.600 208.022,115.600 210.200 C 115.600 212.280,115.545 212.400,114.600 212.400 C 113.656 212.400,113.600 212.522,113.600 214.573 C 113.600 216.647,113.550 216.753,112.500 216.873 C 111.474 216.991,111.392 217.142,111.279 219.098 C 111.173 220.943,111.041 221.225,110.179 221.441 C 109.391 221.639,109.200 221.941,109.200 222.988 C 109.200 226.395,108.734 228.000,107.746 228.000 C 106.869 228.000,106.800 228.156,106.800 230.150 C 106.800 232.219,106.755 232.309,105.600 232.540 C 104.440 232.772,104.400 232.854,104.400 234.990 C 104.400 237.081,104.346 237.200,103.400 237.200 C 102.455 237.200,102.400 237.320,102.400 239.400 C 102.400 241.454,102.336 241.600,101.443 241.600 C 100.225 241.600,100.000 242.226,100.000 245.606 C 100.000 248.299,99.981 248.349,98.900 248.473 C 97.874 248.591,97.792 248.741,97.679 250.700 C 97.568 252.628,97.478 252.800,96.579 252.800 C 95.659 252.800,95.600 252.933,95.600 255.000 C 95.600 257.054,95.536 257.200,94.643 257.200 C 93.509 257.200,93.200 257.850,93.200 260.233 C 93.200 261.851,93.116 262.000,92.200 262.000 C 91.217 262.000,91.200 262.053,91.200 265.200 L 91.200 268.400 90.000 268.400 C 88.815 268.400,88.800 268.427,88.800 270.561 C 88.800 272.602,88.734 272.745,87.600 273.140 C 86.480 273.530,86.400 273.693,86.400 275.579 C 86.400 277.468,86.335 277.600,85.400 277.600 C 84.455 277.600,84.400 277.720,84.400 279.800 C 84.400 281.652,84.286 282.000,83.680 282.000 C 82.374 282.000,82.000 282.864,82.000 285.880 C 82.000 288.693,81.965 288.800,81.043 288.800 C 79.933 288.800,79.600 289.453,79.600 291.633 C 79.600 293.038,79.497 293.200,78.600 293.200 C 77.655 293.200,77.600 293.320,77.600 295.400 C 77.600 297.252,77.486 297.600,76.880 297.600 C 75.700 297.600,75.200 298.449,75.200 300.452 C 75.200 302.110,75.088 302.360,74.300 302.472 C 73.468 302.590,73.391 302.832,73.284 305.675 C 73.170 308.687,73.145 308.753,72.084 308.875 C 71.064 308.993,70.993 309.134,70.881 311.275 C 70.769 313.415,70.697 313.558,69.681 313.675 C 68.678 313.791,68.591 313.951,68.479 315.900 C 68.368 317.828,68.278 318.000,67.379 318.000 C 66.459 318.000,66.400 318.133,66.400 320.200 C 66.400 322.052,66.286 322.400,65.680 322.400 C 64.374 322.400,64.000 323.264,64.000 326.280 C 64.000 329.128,63.975 329.200,63.000 329.200 C 62.055 329.200,62.000 329.320,62.000 331.400 C 62.000 333.578,61.988 333.600,60.800 333.600 C 59.618 333.600,59.600 333.632,59.600 335.712 C 59.600 337.692,59.525 337.853,58.400 338.278 C 57.286 338.698,57.200 338.875,57.200 340.737 C 57.200 342.514,57.097 342.759,56.300 342.872 C 55.469 342.990,55.391 343.233,55.284 346.053 C 55.169 349.082,55.159 349.108,53.984 349.343 C 52.843 349.571,52.800 349.661,52.800 351.790 C 52.800 353.854,52.737 354.000,51.843 354.000 C 50.736 354.000,50.400 354.654,50.400 356.805 C 50.400 358.097,50.255 358.365,49.500 358.472 C 48.716 358.584,48.584 358.871,48.479 360.700 C 48.395 362.158,48.190 362.800,47.808 362.800 C 46.544 362.800,46.000 364.013,46.000 366.829 C 46.000 369.518,45.970 369.600,45.000 369.600 C 44.056 369.600,44.000 369.722,44.000 371.773 C 44.000 373.847,43.950 373.953,42.900 374.073 C 41.859 374.193,41.794 374.323,41.680 376.500 C 41.570 378.611,41.483 378.800,40.623 378.800 C 39.536 378.800,39.200 379.462,39.200 381.605 C 39.200 382.897,39.055 383.165,38.300 383.272 C 37.461 383.391,37.392 383.623,37.284 386.700 L 37.168 390.000 35.984 390.000 C 34.988 390.000,34.800 390.159,34.800 391.000 L 34.800 392.000 17.400 392.000 L 0.000 392.000 0.000 398.200 L 0.000 404.400 200.000 404.400 L 400.000 404.400 400.000 398.200 L 400.000 392.000 381.400 392.000 L 362.800 392.000 362.800 389.800 C 362.800 387.733,362.741 387.600,361.821 387.600 C 360.922 387.600,360.832 387.428,360.721 385.500 C 360.608 383.541,360.526 383.391,359.500 383.273 C 358.450 383.153,358.400 383.048,358.400 380.963 C 358.400 378.864,358.354 378.771,357.216 378.543 C 356.041 378.308,356.031 378.282,355.916 375.253 C 355.809 372.433,355.731 372.190,354.900 372.072 C 354.103 371.959,354.000 371.714,354.000 369.937 C 354.000 368.075,353.914 367.898,352.800 367.478 C 351.675 367.053,351.600 366.892,351.600 364.912 C 351.600 362.938,351.536 362.800,350.621 362.800 C 349.722 362.800,349.632 362.628,349.521 360.700 C 349.408 358.741,349.326 358.591,348.300 358.473 C 347.213 358.348,347.200 358.313,347.200 355.453 C 347.200 352.465,346.823 351.600,345.520 351.600 C 344.914 351.600,344.800 351.252,344.800 349.400 C 344.800 347.333,344.741 347.200,343.821 347.200 C 342.922 347.200,342.832 347.028,342.721 345.100 C 342.609 343.151,342.522 342.991,341.519 342.875 C 340.503 342.758,340.431 342.615,340.319 340.475 C 340.214 338.463,340.096 338.185,339.300 338.072 C 338.488 337.957,338.399 337.722,338.395 335.672 C 338.387 332.431,338.093 331.600,336.953 331.600 C 336.064 331.600,336.000 331.452,336.000 329.390 C 336.000 327.254,335.960 327.172,334.800 326.940 C 333.645 326.709,333.600 326.619,333.600 324.550 C 333.600 322.536,333.538 322.400,332.621 322.400 C 331.722 322.400,331.632 322.228,331.521 320.300 C 331.408 318.341,331.326 318.191,330.300 318.073 C 329.213 317.948,329.200 317.913,329.200 315.053 C 329.200 312.065,328.823 311.200,327.520 311.200 C 326.914 311.200,326.800 310.852,326.800 309.000 C 326.800 306.920,326.745 306.800,325.800 306.800 C 324.857 306.800,324.800 306.677,324.800 304.650 C 324.800 302.581,324.755 302.491,323.600 302.260 C 322.440 302.028,322.400 301.946,322.400 299.810 C 322.400 297.719,322.346 297.600,321.400 297.600 C 320.491 297.600,320.400 297.445,320.396 295.900 C 320.387 292.521,319.985 291.200,318.968 291.200 C 318.119 291.200,318.030 291.004,317.920 288.900 C 317.806 286.723,317.741 286.593,316.700 286.473 C 315.650 286.353,315.600 286.247,315.600 284.173 C 315.600 282.122,315.544 282.000,314.600 282.000 C 313.655 282.000,313.600 281.880,313.600 279.800 C 313.600 277.629,313.584 277.600,312.416 277.600 L 311.232 277.600 311.116 274.300 C 311.001 271.030,310.990 270.999,309.900 270.873 C 308.850 270.753,308.800 270.647,308.800 268.573 C 308.800 266.522,308.744 266.400,307.800 266.400 C 306.854 266.400,306.800 266.281,306.800 264.190 C 306.800 262.054,306.760 261.972,305.600 261.740 C 304.445 261.509,304.400 261.419,304.400 259.350 C 304.400 257.323,304.343 257.200,303.400 257.200 C 302.491 257.200,302.400 257.045,302.396 255.500 C 302.387 252.266,301.983 250.883,300.974 250.629 C 300.168 250.427,300.025 250.112,299.921 248.298 C 299.808 246.342,299.726 246.191,298.700 246.073 C 297.650 245.953,297.600 245.847,297.600 243.773 C 297.600 241.722,297.544 241.600,296.600 241.600 C 295.655 241.600,295.600 241.480,295.600 239.400 C 295.600 237.229,295.584 237.200,294.416 237.200 L 293.232 237.200 293.116 233.900 C 293.008 230.823,292.939 230.591,292.100 230.472 C 291.345 230.365,291.200 230.097,291.200 228.805 C 291.200 226.662,290.864 226.000,289.777 226.000 C 288.917 226.000,288.830 225.811,288.720 223.700 C 288.606 221.523,288.541 221.393,287.500 221.273 C 286.450 221.153,286.400 221.047,286.400 218.973 C 286.400 216.922,286.344 216.800,285.400 216.800 C 284.491 216.800,284.400 216.645,284.396 215.100 C 284.387 211.848,283.971 210.408,282.966 210.156 C 282.169 209.956,282.022 209.635,281.920 207.862 C 281.808 205.944,281.723 205.791,280.700 205.673 C 279.650 205.553,279.600 205.447,279.600 203.373 C 279.600 201.322,279.544 201.200,278.600 201.200 C 277.657 201.200,277.600 201.077,277.600 199.050 C 277.600 196.988,277.552 196.890,276.417 196.663 C 275.241 196.428,275.233 196.408,275.117 193.313 C 275.009 190.431,274.933 190.191,274.100 190.072 C 273.312 189.960,273.200 189.710,273.200 188.052 C 273.200 186.049,272.700 185.200,271.520 185.200 C 270.914 185.200,270.800 184.852,270.800 183.000 C 270.800 180.822,270.788 180.800,269.600 180.800 C 268.412 180.800,268.400 180.778,268.400 178.600 C 268.400 176.520,268.345 176.400,267.400 176.400 C 266.470 176.400,266.400 176.263,266.400 174.450 C 266.400 171.281,266.015 170.019,264.969 169.756 C 264.168 169.556,264.023 169.237,263.920 167.462 C 263.808 165.544,263.723 165.391,262.700 165.273 C 261.650 165.153,261.600 165.047,261.600 162.973 C 261.600 160.934,261.540 160.800,260.620 160.800 C 259.707 160.800,259.632 160.642,259.520 158.500 C 259.407 156.332,259.338 156.193,258.316 156.075 C 257.255 155.953,257.230 155.887,257.116 152.875 C 257.009 150.032,256.932 149.790,256.100 149.672 C 255.324 149.562,255.200 149.304,255.200 147.801 C 255.200 146.031,254.458 144.800,253.392 144.800 C 253.010 144.800,252.805 144.158,252.721 142.700 C 252.608 140.741,252.526 140.591,251.500 140.473 C 250.450 140.353,250.400 140.247,250.400 138.173 C 250.400 136.122,250.344 136.000,249.400 136.000 C 248.435 136.000,248.400 135.908,248.400 133.374 C 248.400 130.407,247.933 129.200,246.786 129.200 C 246.100 129.200,246.000 128.920,246.000 127.000 C 246.000 124.933,245.941 124.800,245.021 124.800 C 244.122 124.800,244.032 124.628,243.921 122.700 C 243.809 120.751,243.722 120.591,242.719 120.475 C 241.703 120.358,241.631 120.215,241.519 118.075 C 241.407 115.934,241.336 115.793,240.316 115.675 C 239.255 115.553,239.230 115.487,239.116 112.475 C 239.009 109.632,238.932 109.390,238.100 109.272 C 237.338 109.164,237.200 108.899,237.200 107.546 C 237.200 105.553,236.609 104.400,235.586 104.400 C 234.900 104.400,234.800 104.120,234.800 102.200 C 234.800 100.022,234.788 100.000,233.600 100.000 C 232.412 100.000,232.400 99.978,232.400 97.800 C 232.400 95.720,232.345 95.600,231.400 95.600 C 230.435 95.600,230.400 95.508,230.400 92.974 C 230.400 90.007,229.933 88.800,228.786 88.800 C 228.100 88.800,228.000 88.520,228.000 86.600 C 228.000 84.520,227.945 84.400,227.000 84.400 C 226.064 84.400,226.000 84.269,226.000 82.365 C 226.000 80.472,225.917 80.299,224.800 79.878 C 223.675 79.453,223.600 79.292,223.600 77.312 C 223.600 75.232,223.582 75.200,222.400 75.200 L 221.200 75.200 221.200 72.000 C 221.200 68.853,221.183 68.800,220.200 68.800 C 219.284 68.800,219.200 68.651,219.200 67.033 C 219.200 64.650,218.891 64.000,217.757 64.000 C 216.864 64.000,216.800 63.854,216.800 61.800 C 216.800 59.733,216.741 59.600,215.821 59.600 C 214.922 59.600,214.832 59.428,214.721 57.500 C 214.608 55.541,214.526 55.391,213.500 55.273 C 212.419 55.149,212.400 55.099,212.400 52.406 C 212.400 49.026,212.175 48.400,210.957 48.400 C 210.064 48.400,210.000 48.254,210.000 46.200 C 210.000 44.120,209.945 44.000,209.000 44.000 C 207.510 44.000,207.413 36.939,208.900 36.728 C 209.732 36.610,209.809 36.368,209.916 33.525 C 210.030 30.513,210.055 30.447,211.116 30.325 C 212.119 30.209,212.209 30.047,212.319 28.146 C 212.431 26.228,212.517 26.077,213.619 25.856 C 214.756 25.629,214.800 25.538,214.800 23.410 C 214.800 21.319,214.854 21.200,215.800 21.200 C 216.745 21.200,216.800 21.080,216.800 19.000 C 216.800 17.058,216.895 16.800,217.610 16.800 C 218.680 16.800,219.200 15.354,219.200 12.374 C 219.200 10.098,219.242 10.000,220.216 10.000 C 221.682 10.000,221.606 3.486,220.138 3.277 C 219.613 3.202,219.179 2.772,219.030 2.177 C 218.811 1.305,218.572 1.200,216.792 1.200 C 215.288 1.200,214.800 1.053,214.800 0.600 C 214.800 0.114,214.156 0.000,211.400 0.000 L 208.000 0.000 208.000 2.800 L 208.000 5.600 206.800 5.600 C 205.612 5.600,205.600 5.622,205.600 7.800 C 205.600 9.742,205.505 10.000,204.790 10.000 C 203.846 10.000,203.200 11.391,203.200 13.426 C 203.200 14.625,203.073 14.800,202.200 14.800 C 201.257 14.800,201.200 14.923,201.200 16.955 C 201.200 20.553,196.928 20.668,196.720 17.075 C 196.608 15.143,196.524 14.991,195.500 14.873 C 194.419 14.749,194.400 14.699,194.400 12.006 C 194.400 8.626,194.175 8.000,192.957 8.000 C 192.064 8.000,192.000 7.854,192.000 5.800 C 192.000 3.720,191.945 3.600,191.000 3.600 C 190.081 3.600,190.000 3.453,190.000 1.800 L 190.000 0.000 187.800 0.000 C 186.138 0.000,185.600 0.143,185.600 0.584 M256.600 21.550 C 255.760 21.729,255.362 22.074,255.272 22.703 C 255.154 23.533,254.939 23.600,252.405 23.600 C 249.026 23.600,248.400 23.825,248.400 25.043 C 248.400 25.840,248.199 26.000,247.200 26.000 C 246.193 26.000,246.000 26.158,246.000 26.979 C 246.000 27.878,245.828 27.968,243.900 28.079 C 241.954 28.191,241.791 28.279,241.676 29.276 C 241.580 30.107,241.307 30.380,240.476 30.476 C 239.728 30.562,239.362 30.863,239.277 31.462 C 239.202 31.987,238.772 32.421,238.177 32.570 C 237.478 32.745,237.200 33.090,237.200 33.781 C 237.200 34.537,236.961 34.774,236.100 34.873 C 235.243 34.972,234.973 35.238,234.876 36.075 C 234.789 36.827,234.489 37.188,233.878 37.275 C 233.159 37.378,232.946 37.772,232.672 39.500 C 232.376 41.364,232.230 41.600,231.369 41.600 C 230.463 41.600,230.400 41.741,230.400 43.757 C 230.400 45.695,230.303 45.938,229.448 46.152 C 228.059 46.501,228.011 46.985,228.005 60.926 C 228.000 74.055,228.129 75.200,229.614 75.200 C 230.300 75.200,230.400 75.480,230.400 77.400 C 230.400 79.449,230.465 79.600,231.350 79.600 C 232.326 79.600,232.800 80.728,232.800 83.050 C 232.800 83.797,233.014 84.000,233.800 84.000 C 234.644 84.000,234.800 84.187,234.800 85.200 C 234.800 86.267,234.933 86.400,236.000 86.400 C 237.067 86.400,237.200 86.533,237.200 87.600 C 237.200 88.613,237.356 88.800,238.200 88.800 C 239.000 88.800,239.200 89.000,239.200 89.800 C 239.200 90.644,239.387 90.800,240.400 90.800 C 241.467 90.800,241.600 90.933,241.600 92.000 C 241.600 93.186,241.625 93.200,243.773 93.200 C 245.847 93.200,245.953 93.250,246.073 94.300 C 246.172 95.157,246.438 95.427,247.275 95.524 C 248.028 95.611,248.388 95.911,248.475 96.524 C 248.590 97.333,248.852 97.409,251.900 97.516 C 255.065 97.628,255.200 97.671,255.200 98.573 C 255.200 99.958,255.540 100.000,266.843 100.000 L 277.220 100.000 277.460 98.800 L 277.700 97.600 280.842 97.600 C 283.819 97.600,283.997 97.550,284.224 96.647 C 284.422 95.857,284.798 95.650,286.427 95.434 C 288.064 95.217,288.432 95.013,288.633 94.210 C 288.801 93.543,289.202 93.208,289.938 93.123 C 290.762 93.028,291.028 92.753,291.127 91.900 C 291.226 91.036,291.462 90.800,292.227 90.800 C 292.998 90.800,293.200 90.593,293.200 89.800 C 293.200 88.956,293.387 88.800,294.400 88.800 C 295.467 88.800,295.600 88.667,295.600 87.600 C 295.600 86.587,295.756 86.400,296.600 86.400 C 297.393 86.400,297.600 86.198,297.600 85.427 C 297.600 84.662,297.836 84.426,298.700 84.327 C 299.741 84.207,299.806 84.077,299.920 81.900 C 300.037 79.647,300.064 79.600,301.220 79.600 C 302.384 79.600,302.400 79.570,302.400 77.400 C 302.400 75.320,302.455 75.200,303.400 75.200 L 304.400 75.200 304.400 70.832 L 304.400 66.464 305.611 66.198 L 306.823 65.931 306.711 60.666 L 306.600 55.400 305.500 55.273 L 304.400 55.147 304.400 50.573 L 304.400 46.000 303.421 46.000 C 302.522 46.000,302.432 45.828,302.321 43.900 C 302.208 41.941,302.126 41.791,301.100 41.673 C 300.050 41.553,300.000 41.447,300.000 39.373 C 300.000 37.225,299.986 37.200,298.800 37.200 C 297.733 37.200,297.600 37.067,297.600 36.000 C 297.600 34.987,297.444 34.800,296.600 34.800 C 295.797 34.800,295.600 34.601,295.600 33.790 C 295.600 32.988,295.353 32.731,294.400 32.540 C 293.471 32.354,293.200 32.086,293.200 31.350 C 293.200 30.610,292.985 30.400,292.227 30.400 C 291.462 30.400,291.226 30.164,291.127 29.300 C 291.028 28.447,290.762 28.172,289.938 28.077 C 289.198 27.991,288.801 27.657,288.630 26.977 C 288.412 26.107,288.170 26.000,286.424 26.000 C 284.571 26.000,284.449 25.934,284.200 24.800 L 283.936 23.600 280.768 23.600 C 277.854 23.600,277.600 23.535,277.600 22.790 C 277.600 22.289,277.209 21.832,276.574 21.590 C 275.459 21.166,258.564 21.132,256.600 21.550 M271.532 32.092 C 271.803 32.363,273.297 32.799,274.853 33.061 C 276.662 33.366,278.001 33.837,278.567 34.369 C 279.053 34.826,279.710 35.200,280.026 35.201 C 281.943 35.204,290.126 42.641,290.603 44.814 C 290.739 45.434,291.267 46.214,291.776 46.548 C 292.422 46.971,292.785 47.706,292.976 48.977 C 293.126 49.980,293.427 50.800,293.645 50.800 C 294.744 50.800,295.200 53.645,295.198 60.487 C 295.195 67.548,294.795 70.400,293.806 70.400 C 293.450 70.400,293.149 71.069,292.972 72.249 C 292.813 73.305,292.365 74.377,291.926 74.749 C 291.503 75.107,290.825 76.120,290.419 77.000 C 289.518 78.952,285.317 83.289,283.663 83.974 C 283.000 84.248,282.156 84.806,281.787 85.214 C 281.419 85.621,280.596 86.069,279.959 86.209 C 279.321 86.349,278.800 86.623,278.800 86.818 C 278.800 87.453,277.318 87.986,274.409 88.399 C 272.838 88.622,271.032 89.073,270.396 89.402 C 268.871 90.190,264.069 90.204,262.953 89.422 C 262.500 89.105,261.155 88.729,259.964 88.588 C 257.097 88.247,255.317 87.681,255.067 87.031 C 254.955 86.740,254.227 86.382,253.449 86.236 C 252.656 86.087,251.695 85.538,251.260 84.985 C 250.834 84.443,250.202 84.000,249.856 84.000 C 249.142 84.000,244.000 78.865,244.000 78.151 C 244.000 77.895,243.728 77.581,243.397 77.454 C 243.065 77.327,242.577 76.722,242.312 76.111 C 242.048 75.500,241.432 74.507,240.945 73.904 C 240.405 73.237,239.952 71.957,239.787 70.631 C 239.636 69.427,239.281 68.363,238.992 68.252 C 237.333 67.616,237.072 55.852,238.668 53.692 C 239.168 53.017,239.645 51.577,239.812 50.243 C 240.030 48.499,240.313 47.813,241.002 47.362 C 241.499 47.036,242.016 46.220,242.150 45.548 C 242.302 44.788,242.698 44.247,243.197 44.117 C 243.639 44.001,244.000 43.672,244.000 43.385 C 244.000 42.741,248.939 37.600,249.558 37.600 C 249.804 37.600,250.399 37.148,250.879 36.595 C 251.360 36.042,252.448 35.402,253.298 35.174 C 254.147 34.945,255.178 34.422,255.588 34.012 C 256.060 33.540,257.191 33.173,258.667 33.013 C 259.950 32.874,261.450 32.504,262.000 32.191 C 263.303 31.449,270.811 31.371,271.532 32.092 M208.000 78.392 C 208.000 81.464,208.038 81.594,209.000 81.836 C 209.848 82.049,210.000 82.319,210.000 83.611 C 210.000 85.746,210.338 86.400,211.443 86.400 C 212.336 86.400,212.400 86.546,212.400 88.600 C 212.400 90.778,212.412 90.800,213.600 90.800 L 214.800 90.800 214.800 93.200 C 214.800 95.493,214.844 95.600,215.800 95.600 C 216.763 95.600,216.800 95.696,216.800 98.167 C 216.800 101.359,217.038 102.000,218.223 102.000 C 219.083 102.000,219.170 102.189,219.280 104.300 C 219.386 106.337,219.503 106.615,220.300 106.728 C 221.055 106.835,221.200 107.103,221.200 108.395 C 221.200 110.546,221.536 111.200,222.643 111.200 C 223.536 111.200,223.600 111.346,223.600 113.400 C 223.600 115.571,223.616 115.600,224.784 115.600 L 225.968 115.600 226.084 118.900 C 226.191 121.953,226.266 122.209,227.080 122.325 C 227.839 122.433,227.976 122.737,228.080 124.525 C 228.192 126.457,228.276 126.609,229.300 126.727 C 230.349 126.847,230.400 126.954,230.400 129.019 C 230.400 130.970,230.495 131.209,231.358 131.425 C 232.173 131.630,232.356 131.988,232.587 133.833 C 232.831 135.786,232.953 136.000,233.829 136.000 C 234.756 136.000,234.800 136.116,234.800 138.567 C 234.800 141.759,235.038 142.400,236.223 142.400 C 237.083 142.400,237.170 142.589,237.280 144.700 C 237.386 146.737,237.503 147.015,238.300 147.128 C 239.055 147.235,239.200 147.503,239.200 148.795 C 239.200 150.946,239.536 151.600,240.643 151.600 C 241.536 151.600,241.600 151.746,241.600 153.800 C 241.600 155.971,241.616 156.000,242.784 156.000 L 243.968 156.000 244.084 159.300 C 244.191 162.353,244.266 162.609,245.080 162.725 C 245.839 162.833,245.976 163.137,246.080 164.925 C 246.192 166.857,246.276 167.009,247.300 167.127 C 248.349 167.247,248.400 167.354,248.400 169.419 C 248.400 171.396,248.487 171.607,249.400 171.836 C 250.248 172.049,250.400 172.319,250.400 173.611 C 250.400 175.746,250.738 176.400,251.843 176.400 C 252.768 176.400,252.800 176.501,252.800 179.421 C 252.800 182.397,252.817 182.448,253.965 182.848 C 256.016 183.563,256.025 190.000,253.975 190.000 C 252.988 190.000,252.800 190.160,252.800 191.000 C 252.800 191.803,252.601 192.000,251.790 192.000 C 250.988 192.000,250.731 192.247,250.540 193.200 C 250.354 194.129,250.086 194.400,249.350 194.400 C 248.601 194.400,248.400 194.614,248.400 195.410 C 248.400 196.212,248.153 196.469,247.200 196.660 C 246.271 196.846,246.000 197.114,246.000 197.850 C 246.000 198.597,245.786 198.800,245.000 198.800 C 244.156 198.800,244.000 198.987,244.000 200.000 C 244.000 201.067,243.867 201.200,242.800 201.200 C 241.795 201.200,241.600 201.359,241.600 202.173 C 241.600 202.938,241.364 203.174,240.500 203.273 C 239.636 203.373,239.373 203.636,239.273 204.500 C 239.174 205.364,238.938 205.600,238.173 205.600 C 237.359 205.600,237.200 205.795,237.200 206.800 C 237.200 207.867,237.067 208.000,236.000 208.000 C 234.987 208.000,234.800 208.156,234.800 209.000 C 234.800 209.786,234.597 210.000,233.850 210.000 C 233.114 210.000,232.846 210.271,232.660 211.200 C 232.469 212.153,232.212 212.400,231.410 212.400 C 230.614 212.400,230.400 212.601,230.400 213.350 C 230.400 214.086,230.129 214.354,229.200 214.540 C 228.247 214.731,228.000 214.988,228.000 215.790 C 228.000 217.328,226.104 217.246,225.927 215.700 C 225.828 214.842,225.563 214.573,224.720 214.475 C 223.720 214.360,223.631 214.197,223.520 212.275 C 223.408 210.343,223.324 210.191,222.300 210.073 C 221.436 209.974,221.200 209.738,221.200 208.973 C 221.200 208.202,220.993 208.000,220.200 208.000 C 219.264 208.000,219.200 207.869,219.200 205.965 C 219.200 204.072,219.117 203.899,218.000 203.478 C 217.150 203.157,216.800 202.759,216.800 202.112 C 216.800 201.406,216.574 201.200,215.800 201.200 C 214.940 201.200,214.799 201.019,214.795 199.900 C 214.785 197.643,214.393 196.800,213.353 196.800 C 212.561 196.800,212.400 196.598,212.400 195.600 C 212.400 194.538,212.264 194.400,211.221 194.400 C 210.081 194.400,210.038 194.331,209.921 192.300 C 209.817 190.489,209.679 190.183,208.924 190.075 C 208.311 189.988,208.011 189.628,207.924 188.875 C 207.827 188.038,207.557 187.772,206.700 187.673 L 205.600 187.547 205.600 131.373 L 205.600 75.200 206.800 75.200 L 208.000 75.200 208.000 78.392 M192.000 132.400 L 192.000 187.600 191.000 187.600 C 190.056 187.600,190.000 187.722,190.000 189.773 C 190.000 191.847,189.950 191.953,188.900 192.073 C 188.036 192.173,187.773 192.436,187.673 193.300 C 187.574 194.164,187.338 194.400,186.573 194.400 C 185.743 194.400,185.599 194.591,185.595 195.700 C 185.585 197.957,185.193 198.800,184.153 198.800 C 183.361 198.800,183.200 199.002,183.200 200.000 C 183.200 201.067,183.067 201.200,182.000 201.200 C 180.812 201.200,180.800 201.222,180.800 203.400 C 180.800 205.480,180.745 205.600,179.800 205.600 C 178.956 205.600,178.800 205.787,178.800 206.800 C 178.800 207.867,178.667 208.000,177.600 208.000 C 176.414 208.000,176.400 208.025,176.400 210.173 C 176.400 212.247,176.350 212.353,175.300 212.473 C 174.523 212.563,174.163 212.857,174.075 213.475 C 173.998 214.021,173.621 214.398,173.075 214.475 C 172.457 214.563,172.163 214.923,172.073 215.700 C 171.968 216.615,171.754 216.800,170.800 216.800 C 169.846 216.800,169.632 216.615,169.527 215.700 C 169.436 214.912,169.144 214.564,168.500 214.472 C 167.849 214.380,167.600 214.076,167.600 213.372 C 167.600 212.559,167.404 212.400,166.400 212.400 C 165.333 212.400,165.200 212.267,165.200 211.200 C 165.200 210.133,165.067 210.000,164.000 210.000 C 162.987 210.000,162.800 209.844,162.800 209.000 C 162.800 208.207,162.598 208.000,161.827 208.000 C 161.062 208.000,160.826 207.764,160.727 206.900 C 160.627 206.036,160.364 205.773,159.500 205.673 C 158.579 205.567,158.400 205.356,158.400 204.373 C 158.400 203.336,158.261 203.200,157.200 203.200 C 156.187 203.200,156.000 203.044,156.000 202.200 C 156.000 201.400,155.800 201.200,155.000 201.200 C 154.156 201.200,154.000 201.013,154.000 200.000 C 154.000 198.933,153.867 198.800,152.800 198.800 C 151.789 198.800,151.600 198.644,151.600 197.808 C 151.600 197.089,151.331 196.748,150.623 196.570 C 150.028 196.421,149.598 195.987,149.523 195.462 C 149.437 194.858,149.071 194.562,148.300 194.473 C 147.379 194.367,147.200 194.156,147.200 193.173 C 147.200 192.136,147.061 192.000,146.000 192.000 C 144.987 192.000,144.800 191.844,144.800 191.000 C 144.800 190.207,144.598 190.000,143.825 190.000 C 142.117 190.000,142.107 183.461,143.814 183.032 C 144.634 182.826,144.774 182.520,144.879 180.701 C 144.979 178.976,145.141 178.581,145.800 178.457 C 146.980 178.236,147.187 177.681,147.194 174.727 C 147.200 172.109,147.223 172.050,148.300 171.927 C 149.341 171.807,149.406 171.677,149.520 169.500 C 149.632 167.358,149.707 167.200,150.620 167.200 C 151.540 167.200,151.600 167.066,151.600 165.027 C 151.600 162.953,151.650 162.847,152.700 162.727 C 153.723 162.609,153.808 162.456,153.920 160.538 C 154.024 158.730,154.160 158.447,155.020 158.231 C 155.958 157.995,156.000 157.847,156.000 154.792 L 156.000 151.600 157.200 151.600 C 158.386 151.600,158.400 151.575,158.400 149.427 C 158.400 147.353,158.450 147.247,159.500 147.127 C 160.523 147.009,160.608 146.856,160.720 144.938 C 160.824 143.130,160.960 142.847,161.820 142.631 C 162.711 142.407,162.800 142.186,162.800 140.192 C 162.800 138.147,162.864 138.000,163.757 138.000 C 164.961 138.000,165.200 137.369,165.200 134.194 C 165.200 131.720,165.229 131.650,166.300 131.527 C 167.341 131.407,167.406 131.277,167.520 129.100 C 167.632 126.958,167.707 126.800,168.620 126.800 C 169.541 126.800,169.600 126.668,169.600 124.600 C 169.600 122.546,169.664 122.400,170.557 122.400 C 171.662 122.400,172.000 121.746,172.000 119.611 C 172.000 118.319,172.152 118.049,173.000 117.836 C 173.962 117.594,174.000 117.464,174.000 114.392 L 174.000 111.200 175.200 111.200 C 176.386 111.200,176.400 111.175,176.400 109.027 C 176.400 106.953,176.450 106.847,177.500 106.727 C 178.523 106.609,178.608 106.456,178.720 104.538 C 178.824 102.730,178.960 102.447,179.820 102.231 C 180.711 102.007,180.800 101.786,180.800 99.792 C 180.800 97.747,180.864 97.600,181.757 97.600 C 182.976 97.600,183.200 96.975,183.200 93.567 C 183.200 90.882,183.230 90.800,184.200 90.800 C 185.145 90.800,185.200 90.680,185.200 88.600 C 185.200 86.422,185.212 86.400,186.400 86.400 C 187.588 86.400,187.600 86.378,187.600 84.200 C 187.600 82.146,187.664 82.000,188.557 82.000 C 189.663 82.000,190.000 81.346,190.000 79.201 C 190.000 77.748,190.337 77.305,191.500 77.232 C 191.898 77.206,192.000 88.490,192.000 132.400 M136.073 204.300 C 136.173 205.164,136.436 205.427,137.300 205.527 C 138.148 205.624,138.400 205.866,138.400 206.583 C 138.400 207.235,138.691 207.586,139.372 207.757 C 139.979 207.910,140.393 208.340,140.472 208.901 C 140.564 209.544,140.913 209.836,141.700 209.927 C 142.561 210.026,142.800 210.263,142.800 211.019 C 142.800 211.716,143.079 212.055,143.803 212.237 C 144.412 212.389,144.901 212.865,145.047 213.444 C 145.214 214.109,145.570 214.400,146.217 214.400 C 146.934 214.400,147.176 214.652,147.273 215.500 C 147.373 216.364,147.636 216.627,148.500 216.727 C 149.348 216.824,149.600 217.066,149.600 217.783 C 149.600 218.430,149.891 218.786,150.556 218.953 C 151.135 219.099,151.611 219.588,151.763 220.197 C 151.945 220.921,152.284 221.200,152.981 221.200 C 153.737 221.200,153.974 221.439,154.073 222.300 C 154.173 223.164,154.436 223.427,155.300 223.527 C 156.164 223.626,156.400 223.862,156.400 224.627 C 156.400 225.391,156.609 225.600,157.373 225.600 C 158.138 225.600,158.374 225.836,158.473 226.700 C 158.573 227.564,158.836 227.827,159.700 227.927 C 160.561 228.026,160.800 228.263,160.800 229.019 C 160.800 229.706,161.078 230.055,161.765 230.227 C 162.340 230.371,162.829 230.860,162.973 231.435 C 163.145 232.122,163.494 232.400,164.181 232.400 C 164.937 232.400,165.174 232.639,165.273 233.500 C 165.373 234.364,165.636 234.627,166.500 234.727 C 167.348 234.824,167.600 235.066,167.600 235.783 C 167.600 236.435,167.891 236.786,168.572 236.957 C 169.179 237.110,169.593 237.540,169.672 238.101 C 169.793 238.948,169.987 239.000,173.000 239.000 L 176.200 239.000 176.321 236.900 C 176.438 234.869,176.481 234.800,177.621 234.800 C 178.664 234.800,178.800 234.662,178.800 233.600 C 178.800 232.587,178.956 232.400,179.800 232.400 C 180.745 232.400,180.800 232.280,180.800 230.200 C 180.800 228.022,180.812 228.000,182.000 228.000 C 183.067 228.000,183.200 227.867,183.200 226.800 C 183.200 225.787,183.356 225.600,184.200 225.600 C 185.145 225.600,185.200 225.480,185.200 223.400 C 185.200 221.222,185.212 221.200,186.400 221.200 C 187.396 221.200,187.600 221.039,187.600 220.252 C 187.600 219.483,187.858 219.263,188.971 219.082 C 191.014 218.751,192.000 219.130,192.000 220.247 C 192.000 221.145,192.138 221.200,194.400 221.200 C 196.664 221.200,196.800 221.146,196.800 220.243 C 196.800 219.557,197.082 219.216,197.800 219.036 C 198.715 218.806,198.800 218.597,198.800 216.592 C 198.800 214.423,198.813 214.400,200.000 214.400 C 201.043 214.400,201.200 214.256,201.199 213.300 C 201.199 212.217,201.232 212.202,203.399 212.337 C 205.420 212.463,205.600 212.553,205.600 213.437 C 205.600 214.240,205.799 214.400,206.800 214.400 C 207.985 214.400,208.000 214.427,208.000 216.557 C 208.000 218.523,208.088 218.735,209.000 218.964 C 209.731 219.148,210.000 219.483,210.000 220.208 C 210.000 221.044,210.189 221.200,211.200 221.200 C 212.388 221.200,212.400 221.222,212.400 223.400 C 212.400 225.578,212.412 225.600,213.600 225.600 C 214.667 225.600,214.800 225.733,214.800 226.800 C 214.800 227.807,214.958 228.000,215.779 228.000 C 216.678 228.000,216.768 228.172,216.879 230.100 C 216.992 232.059,217.074 232.209,218.100 232.327 C 219.021 232.433,219.200 232.644,219.200 233.627 C 219.200 234.612,219.361 234.800,220.200 234.800 C 220.986 234.800,221.200 235.003,221.200 235.750 C 221.200 236.272,221.314 237.270,221.453 237.966 L 221.706 239.232 224.753 239.116 C 227.473 239.012,227.813 238.912,227.917 238.181 C 227.986 237.701,228.523 237.178,229.217 236.916 C 229.989 236.625,230.400 236.189,230.400 235.663 C 230.400 235.130,230.706 234.812,231.300 234.728 C 231.939 234.637,232.236 234.287,232.324 233.524 C 232.420 232.693,232.693 232.420,233.524 232.324 C 234.272 232.238,234.638 231.937,234.723 231.338 C 234.797 230.814,235.228 230.379,235.817 230.232 C 236.399 230.085,236.885 229.599,237.032 229.017 C 237.179 228.428,237.614 227.997,238.138 227.923 C 238.737 227.838,239.038 227.472,239.124 226.724 C 239.220 225.893,239.493 225.620,240.324 225.524 C 241.087 225.436,241.437 225.139,241.528 224.500 C 241.612 223.906,241.930 223.600,242.463 223.600 C 242.989 223.600,243.425 223.189,243.716 222.417 C 243.978 221.723,244.501 221.186,244.981 221.117 C 245.451 221.050,245.850 220.651,245.917 220.181 C 245.986 219.701,246.523 219.178,247.217 218.916 C 247.989 218.625,248.400 218.189,248.400 217.663 C 248.400 217.130,248.706 216.812,249.300 216.728 C 249.939 216.637,250.236 216.287,250.324 215.524 C 250.420 214.693,250.693 214.420,251.524 214.324 C 252.287 214.236,252.637 213.939,252.728 213.300 C 252.812 212.706,253.130 212.400,253.663 212.400 C 254.189 212.400,254.625 211.989,254.916 211.217 C 255.178 210.523,255.701 209.986,256.181 209.917 C 256.651 209.850,257.050 209.451,257.117 208.981 C 257.186 208.501,257.723 207.978,258.417 207.716 C 259.189 207.425,259.600 206.989,259.600 206.463 C 259.600 205.930,259.906 205.612,260.500 205.528 C 261.144 205.436,261.436 205.088,261.527 204.300 C 261.797 201.952,264.000 202.784,264.000 205.235 C 264.000 207.121,264.086 207.302,265.182 207.716 C 266.249 208.118,266.375 208.357,266.482 210.181 C 266.583 211.913,266.725 212.218,267.480 212.325 C 268.239 212.433,268.376 212.737,268.480 214.525 C 268.592 216.457,268.676 216.609,269.700 216.727 C 270.791 216.852,270.800 216.877,270.800 219.861 C 270.800 222.836,270.813 222.874,272.000 223.322 C 273.125 223.747,273.200 223.908,273.200 225.888 C 273.200 227.862,273.264 228.000,274.179 228.000 C 275.078 228.000,275.168 228.172,275.279 230.100 C 275.391 232.049,275.478 232.209,276.481 232.325 C 277.497 232.442,277.569 232.585,277.681 234.725 C 277.784 236.690,277.915 237.016,278.644 237.121 C 279.383 237.226,279.522 237.596,279.752 240.071 C 280.055 243.328,280.168 243.600,281.224 243.600 C 281.897 243.600,282.000 243.889,282.000 245.768 C 282.000 247.844,282.050 247.947,283.180 248.196 C 284.280 248.437,284.368 248.595,284.480 250.527 C 284.583 252.314,284.722 252.617,285.480 252.725 C 286.239 252.833,286.376 253.137,286.480 254.925 C 286.592 256.857,286.676 257.009,287.700 257.127 C 288.787 257.252,288.800 257.287,288.800 260.147 C 288.800 263.135,289.177 264.000,290.480 264.000 C 291.086 264.000,291.200 264.348,291.200 266.200 C 291.200 268.267,291.259 268.400,292.179 268.400 C 293.078 268.400,293.168 268.572,293.279 270.500 C 293.391 272.449,293.478 272.609,294.481 272.725 C 295.497 272.842,295.569 272.985,295.681 275.125 C 295.786 277.137,295.904 277.415,296.700 277.528 C 297.425 277.631,297.600 277.911,297.600 278.972 C 297.600 282.395,298.064 284.000,299.054 284.000 C 299.934 284.000,300.000 284.153,300.000 286.210 C 300.000 288.346,300.040 288.428,301.200 288.660 C 302.355 288.891,302.400 288.981,302.400 291.050 C 302.400 293.064,302.462 293.200,303.379 293.200 C 304.278 293.200,304.368 293.372,304.479 295.300 C 304.592 297.259,304.674 297.409,305.700 297.527 C 306.797 297.653,306.800 297.661,306.800 300.837 L 306.800 304.020 308.000 304.260 C 309.155 304.491,309.200 304.581,309.200 306.650 C 309.200 308.677,309.257 308.800,310.200 308.800 C 311.146 308.800,311.200 308.919,311.200 311.010 C 311.200 313.146,311.240 313.228,312.400 313.460 C 313.555 313.691,313.600 313.781,313.600 315.850 C 313.600 317.877,313.657 318.000,314.600 318.000 C 315.509 318.000,315.600 318.155,315.604 319.700 C 315.613 323.059,316.016 324.400,317.017 324.400 C 317.850 324.400,317.941 324.608,318.064 326.801 L 318.200 329.201 282.100 329.201 L 246.000 329.200 246.000 328.208 C 246.000 327.483,245.731 327.148,245.000 326.964 C 244.049 326.726,244.000 326.571,244.000 323.837 C 244.000 320.865,243.621 320.000,242.320 320.000 C 241.714 320.000,241.600 319.652,241.600 317.800 C 241.600 315.631,241.583 315.600,240.421 315.600 C 239.281 315.600,239.238 315.531,239.121 313.500 C 239.017 311.689,238.879 311.383,238.124 311.275 C 237.511 311.188,237.211 310.828,237.124 310.075 C 237.027 309.238,236.757 308.972,235.900 308.873 C 235.036 308.774,234.800 308.538,234.800 307.773 C 234.800 306.959,234.605 306.800,233.600 306.800 C 232.533 306.800,232.400 306.667,232.400 305.600 C 232.400 304.587,232.244 304.400,231.400 304.400 C 230.597 304.400,230.400 304.201,230.400 303.390 C 230.400 302.588,230.153 302.331,229.200 302.140 C 228.271 301.954,228.000 301.686,228.000 300.950 C 228.000 300.065,227.849 300.000,225.800 300.000 C 223.622 300.000,223.600 299.988,223.600 298.800 C 223.600 297.733,223.467 297.600,222.400 297.600 C 221.387 297.600,221.200 297.444,221.200 296.600 C 221.200 295.617,221.145 295.600,218.027 295.600 C 214.862 295.600,214.853 295.597,214.727 294.500 L 214.600 293.400 198.900 293.295 L 183.200 293.191 183.200 294.395 C 183.200 295.589,183.180 295.600,181.000 295.600 C 178.932 295.600,178.800 295.659,178.800 296.580 C 178.800 297.493,178.642 297.568,176.500 297.680 C 174.334 297.793,174.193 297.863,174.075 298.880 C 173.960 299.880,173.797 299.969,171.875 300.080 C 170.100 300.183,169.782 300.325,169.677 301.062 C 169.602 301.587,169.172 302.021,168.577 302.170 C 167.869 302.348,167.600 302.689,167.600 303.408 C 167.600 304.244,167.411 304.400,166.400 304.400 C 165.333 304.400,165.200 304.533,165.200 305.600 C 165.200 306.667,165.067 306.800,164.000 306.800 C 162.996 306.800,162.800 306.959,162.800 307.772 C 162.800 308.476,162.551 308.780,161.900 308.872 C 161.103 308.985,160.986 309.263,160.880 311.300 C 160.763 313.553,160.736 313.600,159.580 313.600 C 158.597 313.600,158.400 313.762,158.400 314.572 C 158.400 315.274,158.151 315.580,157.505 315.672 C 156.532 315.811,156.068 317.386,156.023 320.700 C 156.002 322.241,155.906 322.400,155.000 322.400 C 154.012 322.400,154.000 322.440,154.000 325.800 L 154.000 329.200 116.800 329.200 L 79.600 329.200 79.600 327.050 C 79.600 324.981,79.645 324.891,80.800 324.660 C 81.960 324.428,82.000 324.346,82.000 322.210 C 82.000 320.152,82.065 320.000,82.948 320.000 C 83.988 320.000,84.387 318.704,84.396 315.300 C 84.400 313.755,84.491 313.600,85.400 313.600 C 86.356 313.600,86.400 313.493,86.400 311.200 L 86.400 308.800 87.600 308.800 C 88.788 308.800,88.800 308.778,88.800 306.600 C 88.800 304.546,88.864 304.400,89.757 304.400 C 90.859 304.400,91.200 303.746,91.200 301.631 C 91.200 300.416,91.392 300.041,92.200 299.673 C 93.136 299.246,93.200 299.028,93.200 296.235 C 93.200 293.279,93.210 293.252,94.300 293.127 C 95.324 293.009,95.408 292.857,95.520 290.925 C 95.624 289.137,95.761 288.833,96.520 288.725 C 97.277 288.617,97.417 288.313,97.519 286.546 C 97.631 284.628,97.717 284.477,98.819 284.256 C 99.954 284.029,100.000 283.935,100.000 281.838 C 100.000 279.892,100.096 279.642,100.884 279.528 C 101.941 279.375,102.305 278.283,102.360 275.100 C 102.398 272.924,102.454 272.800,103.400 272.800 C 104.345 272.800,104.400 272.680,104.400 270.600 C 104.400 268.422,104.412 268.400,105.600 268.400 C 106.786 268.400,106.800 268.375,106.800 266.228 C 106.800 264.280,106.893 264.042,107.700 263.928 C 108.482 263.817,108.616 263.529,108.720 261.732 C 108.829 259.847,108.944 259.628,110.020 259.253 C 111.185 258.847,111.200 258.804,111.200 255.847 C 111.200 252.878,111.209 252.852,112.300 252.727 C 113.324 252.609,113.408 252.457,113.520 250.525 C 113.624 248.737,113.761 248.433,114.520 248.325 C 115.292 248.215,115.415 247.920,115.519 245.925 C 115.631 243.785,115.703 243.642,116.719 243.525 C 117.720 243.409,117.809 243.247,117.920 241.325 C 118.023 239.550,118.165 239.232,118.904 239.125 C 119.939 238.975,120.305 237.862,120.360 234.700 C 120.398 232.524,120.454 232.400,121.400 232.400 C 122.344 232.400,122.400 232.278,122.400 230.227 C 122.400 228.153,122.450 228.047,123.500 227.927 C 124.524 227.809,124.608 227.657,124.720 225.725 C 124.824 223.937,124.961 223.633,125.720 223.525 C 126.474 223.418,126.629 223.087,126.800 221.216 C 126.976 219.289,127.118 219.004,128.000 218.799 C 128.946 218.579,129.006 218.400,129.116 215.508 C 129.230 212.514,129.255 212.447,130.316 212.325 C 131.321 212.209,131.409 212.048,131.520 210.125 C 131.624 208.337,131.761 208.033,132.520 207.925 C 133.293 207.815,133.415 207.521,133.520 205.500 C 133.660 202.813,135.787 201.814,136.073 204.300 M208.000 307.800 C 208.000 308.788,208.040 308.800,211.400 308.800 L 214.800 308.800 214.800 310.000 C 214.800 311.013,214.956 311.200,215.800 311.200 C 216.588 311.200,216.800 311.403,216.800 312.157 C 216.800 313.267,217.453 313.600,219.633 313.600 C 221.038 313.600,221.200 313.703,221.200 314.600 C 221.200 315.441,221.388 315.600,222.379 315.600 C 223.519 315.600,223.562 315.669,223.679 317.700 C 223.792 319.659,223.874 319.809,224.900 319.927 C 225.821 320.033,226.000 320.244,226.000 321.227 C 226.000 322.205,226.163 322.400,226.979 322.400 C 227.878 322.400,227.968 322.572,228.079 324.500 C 228.192 326.459,228.274 326.609,229.300 326.727 L 230.400 326.853 230.400 330.227 C 230.400 333.558,230.412 333.600,231.400 333.600 L 232.400 333.600 232.400 362.800 L 232.400 392.000 198.800 392.000 L 165.200 392.000 165.200 364.000 C 165.200 337.304,165.234 336.000,165.920 336.000 C 167.325 336.000,167.600 335.170,167.600 330.920 L 167.600 326.800 168.600 326.800 C 169.545 326.800,169.600 326.680,169.600 324.600 C 169.600 322.422,169.612 322.400,170.800 322.400 C 171.867 322.400,172.000 322.267,172.000 321.200 C 172.000 320.187,172.156 320.000,173.000 320.000 C 173.786 320.000,174.000 319.797,174.000 319.050 C 174.000 318.314,174.271 318.046,175.200 317.860 C 176.153 317.669,176.400 317.412,176.400 316.610 C 176.400 315.812,176.600 315.600,177.357 315.600 C 178.043 315.600,178.384 315.318,178.564 314.600 C 178.748 313.869,179.083 313.600,179.808 313.600 C 180.640 313.600,180.800 313.410,180.800 312.421 C 180.800 311.281,180.869 311.238,182.900 311.121 C 184.849 311.009,185.009 310.922,185.125 309.919 C 185.242 308.903,185.385 308.831,187.525 308.719 C 189.537 308.614,189.815 308.496,189.928 307.700 L 190.056 306.800 199.028 306.800 L 208.000 306.800 208.000 307.800 M151.600 367.400 L 151.600 392.000 101.000 392.000 L 50.400 392.000 50.400 390.800 C 50.400 389.733,50.533 389.600,51.600 389.600 C 52.788 389.600,52.800 389.578,52.800 387.400 C 52.800 385.346,52.864 385.200,53.757 385.200 C 54.862 385.200,55.200 384.546,55.200 382.411 C 55.200 381.119,55.352 380.849,56.200 380.636 C 57.162 380.394,57.200 380.264,57.200 377.192 L 57.200 374.000 58.400 374.000 C 59.588 374.000,59.600 373.978,59.600 371.800 C 59.600 369.720,59.655 369.600,60.600 369.600 C 61.543 369.600,61.600 369.477,61.600 367.450 C 61.600 365.381,61.645 365.291,62.800 365.060 C 63.960 364.828,64.000 364.746,64.000 362.610 C 64.000 360.550,64.065 360.400,64.950 360.400 C 66.033 360.400,66.400 359.273,66.400 355.950 C 66.400 354.137,66.470 354.000,67.400 354.000 C 68.356 354.000,68.400 353.893,68.400 351.600 L 68.400 349.200 69.600 349.200 C 70.788 349.200,70.800 349.178,70.800 347.000 C 70.800 344.925,70.856 344.800,71.792 344.800 C 72.517 344.800,72.852 344.531,73.036 343.800 L 73.287 342.800 112.443 342.800 L 151.600 342.800 151.600 367.400 M324.872 343.700 C 324.952 344.262,325.321 344.646,325.857 344.722 C 326.571 344.824,326.758 345.205,326.985 347.022 C 327.231 348.987,327.353 349.200,328.229 349.200 C 329.140 349.200,329.200 349.337,329.200 351.410 C 329.200 353.546,329.240 353.628,330.400 353.860 C 331.555 354.091,331.600 354.181,331.600 356.250 C 331.600 358.277,331.657 358.400,332.600 358.400 C 333.530 358.400,333.600 358.537,333.600 360.350 C 333.600 363.475,333.976 364.740,334.946 364.878 C 335.670 364.981,335.830 365.334,336.000 367.200 C 336.186 369.245,336.278 369.409,337.300 369.527 C 338.350 369.647,338.400 369.753,338.400 371.827 C 338.400 373.878,338.456 374.000,339.400 374.000 C 340.345 374.000,340.400 374.120,340.400 376.200 C 340.400 378.371,340.416 378.400,341.584 378.400 L 342.768 378.400 342.884 381.700 C 342.992 384.777,343.061 385.009,343.900 385.128 C 344.616 385.230,344.801 385.515,344.805 386.528 C 344.815 388.757,345.210 389.600,346.247 389.600 C 347.039 389.600,347.200 389.802,347.200 390.800 L 347.200 392.000 296.600 392.000 L 246.000 392.000 246.000 367.400 L 246.000 342.800 285.372 342.800 L 324.744 342.800 324.872 343.700 M88.800 352.779 C 88.800 353.919,88.731 353.962,86.700 354.079 C 84.889 354.183,84.583 354.321,84.475 355.076 C 84.388 355.689,84.028 355.989,83.275 356.076 C 82.438 356.173,82.172 356.443,82.073 357.300 C 81.975 358.154,81.736 358.400,81.000 358.400 C 80.369 358.400,79.960 358.699,79.773 359.300 C 79.400 360.494,78.886 360.787,77.143 360.794 C 75.926 360.799,75.646 360.964,75.436 361.800 C 75.252 362.531,74.917 362.800,74.192 362.800 C 73.360 362.800,73.200 362.990,73.200 363.979 C 73.200 365.119,73.131 365.162,71.100 365.279 C 69.306 365.382,68.982 365.525,68.878 366.254 C 68.795 366.837,68.381 367.184,67.578 367.344 L 66.400 367.580 66.400 370.790 C 66.400 373.924,66.423 374.000,67.373 374.000 C 68.138 374.000,68.374 374.236,68.473 375.100 C 68.573 375.964,68.836 376.227,69.700 376.327 C 70.707 376.442,70.800 376.597,70.800 378.147 C 70.800 380.425,71.297 380.800,74.315 380.800 C 76.786 380.800,76.884 380.761,77.322 379.600 C 77.643 378.750,78.041 378.400,78.688 378.400 C 79.394 378.400,79.600 378.174,79.600 377.400 C 79.600 376.540,79.781 376.399,80.900 376.395 C 82.989 376.386,83.946 375.984,84.078 375.059 C 84.163 374.458,84.530 374.162,85.300 374.073 C 86.164 373.974,86.400 373.738,86.400 372.973 C 86.400 372.159,86.595 372.000,87.600 372.000 C 88.658 372.000,88.800 371.863,88.800 370.837 C 88.800 369.704,88.860 369.670,91.100 369.531 C 94.716 369.306,95.600 369.527,95.600 370.655 C 95.600 371.403,95.865 371.673,96.778 371.856 C 97.581 372.016,97.995 372.363,98.078 372.946 C 98.182 373.675,98.506 373.818,100.300 373.921 C 102.331 374.038,102.400 374.081,102.400 375.221 C 102.400 376.212,102.559 376.400,103.400 376.400 C 104.200 376.400,104.400 376.600,104.400 377.400 C 104.400 378.239,104.588 378.400,105.573 378.400 C 106.556 378.400,106.767 378.579,106.873 379.500 C 106.973 380.364,107.236 380.627,108.100 380.727 C 108.951 380.824,109.200 381.065,109.200 381.789 C 109.200 383.630,115.254 383.542,115.525 381.697 C 115.610 381.114,115.985 380.810,116.725 380.724 C 117.556 380.628,117.828 380.356,117.924 379.524 C 118.020 378.693,118.293 378.420,119.124 378.324 C 119.887 378.236,120.237 377.939,120.328 377.300 C 120.420 376.649,120.724 376.400,121.428 376.400 C 122.241 376.400,122.400 376.204,122.400 375.200 C 122.400 374.133,122.533 374.000,123.600 374.000 C 124.588 374.000,124.800 373.836,124.800 373.073 C 124.800 372.269,125.078 372.097,126.900 371.773 C 128.636 371.465,129.022 371.244,129.128 370.500 C 129.221 369.846,129.524 369.600,130.238 369.600 C 131.009 369.600,131.272 369.342,131.460 368.400 C 131.646 367.471,131.914 367.200,132.650 367.200 C 133.390 367.200,133.600 366.985,133.600 366.227 C 133.600 365.462,133.836 365.226,134.700 365.127 C 135.557 365.028,135.827 364.762,135.924 363.924 C 136.020 363.093,136.293 362.820,137.124 362.724 C 138.804 362.530,138.782 358.667,137.100 358.473 C 136.112 358.360,136.000 358.190,136.000 356.806 C 136.000 354.654,135.664 354.000,134.557 354.000 C 133.757 354.000,133.600 353.800,133.600 352.784 L 133.600 351.568 130.300 351.684 C 127.030 351.799,126.999 351.810,126.873 352.900 C 126.755 353.931,126.625 354.000,124.817 354.000 C 123.106 354.000,122.859 354.111,122.643 354.972 C 122.490 355.579,122.060 355.993,121.499 356.072 C 120.856 356.164,120.564 356.513,120.473 357.300 C 120.367 358.221,120.156 358.400,119.173 358.400 C 118.136 358.400,118.000 358.539,118.000 359.600 C 118.000 360.667,117.867 360.800,116.800 360.800 C 115.787 360.800,115.600 360.956,115.600 361.800 C 115.600 362.600,115.400 362.800,114.600 362.800 C 113.756 362.800,113.600 362.987,113.600 364.000 C 113.600 365.067,113.467 365.200,112.400 365.200 C 111.333 365.200,111.200 365.067,111.200 364.000 C 111.200 362.933,111.067 362.800,110.000 362.800 C 108.987 362.800,108.800 362.644,108.800 361.800 C 108.800 361.026,108.594 360.800,107.888 360.800 C 107.241 360.800,106.843 360.450,106.522 359.600 C 106.111 358.510,105.903 358.400,104.261 358.400 C 102.586 358.400,102.444 358.319,102.327 357.300 C 102.227 356.436,101.964 356.173,101.100 356.073 C 100.236 355.974,100.000 355.738,100.000 354.973 C 100.000 354.159,99.805 354.000,98.800 354.000 C 97.733 354.000,97.600 353.867,97.600 352.800 L 97.600 351.600 93.200 351.600 L 88.800 351.600 88.800 352.779 M266.400 352.784 C 266.400 353.868,266.270 354.000,265.200 354.000 C 264.196 354.000,264.000 354.159,264.000 354.972 C 264.000 355.676,263.751 355.980,263.100 356.072 C 262.240 356.194,262.195 356.387,262.087 360.447 L 261.974 364.695 263.237 364.947 C 263.932 365.086,264.928 365.200,265.450 365.200 C 266.197 365.200,266.400 365.414,266.400 366.200 C 266.400 366.993,266.602 367.200,267.373 367.200 C 268.138 367.200,268.374 367.436,268.473 368.300 C 268.573 369.164,268.836 369.427,269.700 369.527 C 270.567 369.626,270.800 369.861,270.800 370.637 C 270.800 371.405,271.057 371.671,271.978 371.856 C 272.781 372.016,273.195 372.363,273.278 372.946 C 273.352 373.466,273.737 373.848,274.262 373.923 C 274.773 373.996,275.220 374.425,275.358 374.975 C 275.598 375.931,276.594 376.385,278.472 376.395 C 279.277 376.399,279.576 376.624,279.672 377.300 C 279.764 377.944,280.112 378.236,280.900 378.327 C 281.821 378.433,282.000 378.644,282.000 379.627 C 282.000 380.658,282.142 380.800,283.172 380.800 C 284.076 380.800,284.374 381.002,284.472 381.684 C 284.716 383.368,288.228 383.426,288.648 381.753 C 288.852 380.939,289.131 380.800,290.563 380.800 C 292.353 380.800,293.200 380.269,293.200 379.147 C 293.200 378.687,293.572 378.410,294.300 378.327 C 295.088 378.236,295.436 377.944,295.528 377.300 C 295.620 376.649,295.924 376.400,296.628 376.400 C 297.441 376.400,297.600 376.204,297.600 375.200 C 297.600 374.133,297.733 374.000,298.800 374.000 C 299.788 374.000,300.000 373.836,300.000 373.073 C 300.000 372.269,300.278 372.097,302.100 371.773 C 303.815 371.468,304.223 371.239,304.325 370.524 C 304.552 368.927,309.200 369.014,309.200 370.615 C 309.200 371.439,309.445 371.573,311.400 371.817 C 313.375 372.064,313.600 372.190,313.600 373.046 C 313.600 373.772,313.818 374.000,314.512 374.000 C 315.159 374.000,315.557 374.350,315.878 375.200 C 316.299 376.317,316.472 376.400,318.365 376.400 C 320.269 376.400,320.400 376.464,320.400 377.400 C 320.400 378.193,320.602 378.400,321.373 378.400 C 322.138 378.400,322.374 378.636,322.473 379.500 C 322.591 380.526,322.741 380.608,324.700 380.721 L 326.800 380.842 326.800 379.621 C 326.800 378.531,326.929 378.400,328.000 378.400 C 329.013 378.400,329.200 378.244,329.200 377.400 C 329.200 376.673,329.414 376.400,329.986 376.400 C 331.254 376.400,331.638 375.067,331.515 371.098 L 331.400 367.400 330.300 367.273 C 329.436 367.174,329.200 366.938,329.200 366.173 C 329.200 365.363,329.003 365.200,328.027 365.200 C 327.044 365.200,326.833 365.021,326.727 364.100 C 326.609 363.074,326.459 362.992,324.500 362.879 C 322.572 362.768,322.400 362.678,322.400 361.779 C 322.400 361.009,322.193 360.800,321.427 360.800 C 320.662 360.800,320.426 360.564,320.327 359.700 C 320.227 358.836,319.964 358.573,319.100 358.473 C 318.318 358.383,318.000 358.121,318.000 357.564 C 318.000 356.680,316.596 356.000,314.774 356.000 C 313.788 356.000,313.600 355.840,313.600 355.000 C 313.600 354.161,313.412 354.000,312.427 354.000 C 311.444 354.000,311.233 353.821,311.127 352.900 L 311.000 351.800 306.700 351.686 L 302.400 351.573 302.400 352.786 C 302.400 353.868,302.270 354.000,301.200 354.000 C 300.187 354.000,300.000 354.156,300.000 355.000 C 300.000 355.840,299.812 356.000,298.826 356.000 C 297.004 356.000,295.600 356.680,295.600 357.564 C 295.600 358.121,295.282 358.383,294.500 358.473 C 293.636 358.573,293.373 358.836,293.273 359.700 C 293.174 360.564,292.938 360.800,292.173 360.800 C 291.402 360.800,291.200 361.007,291.200 361.800 C 291.200 362.709,291.045 362.801,289.500 362.806 C 287.531 362.813,286.970 363.092,286.693 364.200 C 286.539 364.813,286.482 364.743,286.446 363.900 C 286.409 363.014,286.210 362.800,285.428 362.800 C 284.724 362.800,284.420 362.551,284.328 361.900 C 284.238 361.267,283.887 360.964,283.146 360.878 C 282.340 360.784,282.036 360.478,281.856 359.578 C 281.669 358.647,281.408 358.400,280.610 358.400 C 279.813 358.400,279.600 358.199,279.600 357.447 C 279.600 356.407,278.757 356.015,276.500 356.005 C 275.381 356.001,275.200 355.860,275.200 355.000 C 275.200 354.207,274.998 354.000,274.227 354.000 C 273.462 354.000,273.226 353.764,273.127 352.900 C 273.001 351.810,272.970 351.799,269.700 351.684 L 266.400 351.568 266.400 352.784  M -25 0 L -5 0 L -5 20 L -25 20 Z M 405 0 L 425 0 L 425 20 L 405 20 Z" stroke="none" fill="#fcfcfb" fill-rule="evenodd" transform="translate(30,0)"></path><path id="path1" d="M261.200 34.359 C 259.990 34.492,258.370 34.986,257.600 35.457 C 256.830 35.928,255.638 36.432,254.950 36.578 C 254.263 36.723,253.286 37.282,252.781 37.821 C 252.275 38.359,251.628 38.800,251.344 38.800 C 250.779 38.800,245.600 43.794,245.600 44.339 C 245.600 44.524,245.265 44.979,244.855 45.350 C 244.446 45.720,243.782 46.783,243.380 47.712 C 242.979 48.640,242.418 49.679,242.135 50.021 C 240.006 52.585,240.043 68.808,242.182 71.183 C 242.488 71.522,242.990 72.533,243.298 73.429 C 243.859 75.063,244.146 75.469,246.647 78.167 C 247.391 78.970,248.000 79.801,248.000 80.013 C 248.000 80.226,248.266 80.400,248.591 80.400 C 248.916 80.400,249.472 80.843,249.827 81.384 C 250.181 81.926,250.860 82.487,251.336 82.630 C 251.811 82.774,252.565 83.225,253.011 83.632 C 253.458 84.040,254.619 84.654,255.592 84.997 C 256.564 85.340,257.703 85.931,258.122 86.311 C 259.401 87.468,273.879 87.334,275.482 86.150 C 276.114 85.683,277.254 85.169,278.016 85.008 C 278.777 84.847,279.850 84.320,280.400 83.837 C 280.950 83.353,282.173 82.442,283.118 81.812 C 285.073 80.508,289.193 75.949,289.907 74.300 C 290.169 73.695,290.549 73.200,290.752 73.200 C 290.954 73.200,291.345 72.255,291.621 71.100 C 291.896 69.945,292.487 68.190,292.934 67.200 C 294.146 64.515,294.111 57.072,292.871 54.076 C 292.388 52.907,291.806 51.118,291.578 50.100 C 291.350 49.082,290.811 48.003,290.381 47.702 C 289.952 47.401,289.600 46.906,289.600 46.601 C 289.600 44.904,280.670 37.037,278.222 36.578 C 277.436 36.430,276.350 35.961,275.809 35.536 C 274.074 34.171,267.637 33.652,261.200 34.359  M -25 0 L -5 0 L -5 20 L -25 20 Z M 405 0 L 425 0 L 425 20 L 405 20 Z" stroke="none" fill="#e7a44e" fill-rule="evenodd" transform="translate(490,0)"></path><path id="path2" d="M263.600 32.354 C 263.270 32.536,261.650 32.899,260.000 33.162 C 258.350 33.425,256.550 33.942,256.000 34.312 C 255.450 34.682,254.431 35.186,253.735 35.433 C 251.644 36.175,244.400 42.457,244.400 43.528 C 244.400 43.772,244.059 44.154,243.642 44.377 C 243.225 44.601,242.689 45.282,242.451 45.892 C 242.212 46.501,241.655 47.450,241.212 48.000 C 240.770 48.550,240.223 49.990,239.998 51.200 C 239.773 52.410,239.286 54.030,238.916 54.800 C 237.851 57.014,237.975 64.336,239.125 67.115 C 239.606 68.278,240.000 69.631,240.000 70.121 C 240.000 70.611,240.363 71.640,240.807 72.406 C 241.252 73.173,241.901 74.430,242.251 75.200 C 242.600 75.970,243.147 76.750,243.465 76.932 C 243.784 77.115,244.217 77.717,244.427 78.271 C 244.637 78.825,245.162 79.369,245.592 79.482 C 246.022 79.594,246.468 79.982,246.583 80.343 C 246.698 80.704,247.612 81.630,248.615 82.400 C 249.618 83.170,250.956 84.210,251.589 84.710 C 252.222 85.211,253.339 85.828,254.070 86.081 C 254.802 86.333,255.580 86.781,255.800 87.074 C 256.020 87.368,257.820 87.891,259.800 88.237 C 267.655 89.609,267.991 89.635,269.851 89.003 C 270.819 88.675,272.644 88.286,273.906 88.141 C 276.152 87.881,280.832 85.791,281.770 84.628 C 282.007 84.336,282.664 83.989,283.231 83.858 C 284.352 83.599,290.400 77.510,290.400 76.641 C 290.400 76.349,290.940 75.431,291.600 74.600 C 292.268 73.759,292.800 72.609,292.800 72.003 C 292.800 71.406,293.224 70.459,293.743 69.900 C 295.643 67.849,295.643 53.863,293.742 51.605 C 293.189 50.946,292.800 49.964,292.800 49.223 C 292.800 48.408,292.463 47.649,291.846 47.077 C 291.321 46.591,290.623 45.565,290.295 44.796 C 288.458 40.497,279.292 34.077,273.720 33.187 C 272.345 32.968,270.754 32.611,270.184 32.394 C 268.936 31.920,264.440 31.892,263.600 32.354 M272.123 33.618 C 273.706 33.848,275.934 34.478,277.075 35.018 C 278.216 35.558,279.277 36.000,279.433 36.000 C 280.860 36.000,290.000 44.135,290.000 45.405 C 290.000 45.699,290.470 46.498,291.045 47.181 C 291.620 47.864,292.260 49.180,292.468 50.105 C 292.676 51.031,293.130 52.102,293.476 52.485 C 294.905 54.063,295.054 68.249,293.647 68.718 C 293.403 68.799,292.912 69.886,292.556 71.133 C 292.201 72.380,291.592 73.760,291.203 74.200 C 290.815 74.640,290.245 75.496,289.936 76.102 C 289.187 77.574,284.306 82.511,282.911 83.209 C 282.300 83.514,281.440 84.066,281.000 84.437 C 276.184 88.489,262.615 89.286,256.000 85.906 C 251.431 83.571,245.200 78.624,245.200 77.331 C 245.200 77.116,244.750 76.517,244.200 76.000 C 243.650 75.483,243.200 74.849,243.200 74.590 C 243.200 74.331,242.772 73.314,242.249 72.331 C 241.726 71.347,241.084 69.205,240.822 67.571 C 240.559 65.937,240.156 63.948,239.926 63.152 C 239.470 61.578,239.549 60.549,240.570 54.800 C 241.189 51.311,242.889 46.931,244.293 45.206 C 247.974 40.685,252.342 36.933,254.792 36.189 C 255.338 36.023,256.254 35.540,256.828 35.116 C 258.890 33.592,266.688 32.828,272.123 33.618  M -25 0 L -5 0 L -5 20 L -25 20 Z M 405 0 L 425 0 L 425 20 L 405 20 Z" stroke="none" fill="#f8dcb5" fill-rule="evenodd" transform="translate(950,0)"></path><path id="path3" d="M261.036 33.813 C 259.281 34.108,257.407 34.688,256.828 35.116 C 256.254 35.540,255.338 36.023,254.792 36.189 C 250.204 37.583,240.545 48.625,241.338 51.571 C 241.446 51.973,241.524 51.883,241.554 51.324 C 241.579 50.842,241.779 50.336,241.999 50.201 C 242.218 50.065,242.775 49.078,243.236 48.006 C 243.697 46.934,244.417 45.746,244.837 45.367 C 245.257 44.987,245.600 44.524,245.600 44.339 C 245.600 43.794,250.779 38.800,251.344 38.800 C 251.628 38.800,252.275 38.359,252.781 37.821 C 253.286 37.282,254.263 36.720,254.950 36.572 C 255.638 36.424,256.932 35.877,257.826 35.357 C 261.003 33.508,273.387 33.630,275.807 35.534 C 276.350 35.961,277.436 36.430,278.222 36.578 C 280.670 37.037,289.600 44.904,289.600 46.601 C 289.600 46.906,289.952 47.401,290.381 47.702 C 290.811 48.003,291.350 49.082,291.578 50.100 C 291.806 51.118,292.388 52.907,292.871 54.076 C 294.111 57.072,294.146 64.515,292.934 67.200 C 292.487 68.190,291.896 69.945,291.621 71.100 C 291.345 72.255,290.954 73.200,290.752 73.200 C 290.549 73.200,290.169 73.695,289.907 74.300 C 289.193 75.949,285.073 80.508,283.118 81.812 C 282.173 82.442,280.950 83.353,280.400 83.837 C 279.850 84.320,278.777 84.847,278.016 85.008 C 277.254 85.169,276.114 85.683,275.482 86.150 C 273.879 87.334,259.401 87.468,258.122 86.311 C 257.703 85.931,256.564 85.340,255.592 84.997 C 254.619 84.654,253.458 84.040,253.011 83.632 C 252.565 83.225,251.811 82.774,251.336 82.630 C 250.860 82.487,250.181 81.926,249.827 81.384 C 249.472 80.843,248.916 80.400,248.591 80.400 C 248.266 80.400,248.000 80.226,248.000 80.013 C 248.000 79.801,247.415 79.001,246.700 78.235 C 244.254 75.617,243.595 74.667,243.195 73.181 C 242.975 72.363,242.526 71.470,242.197 71.198 C 241.869 70.925,241.579 70.319,241.554 69.851 C 241.522 69.264,241.454 69.200,241.335 69.644 C 241.240 69.998,241.621 71.150,242.181 72.204 C 242.742 73.257,243.200 74.331,243.200 74.590 C 243.200 74.849,243.650 75.483,244.200 76.000 C 244.750 76.517,245.200 77.116,245.200 77.331 C 245.200 78.624,251.431 83.571,256.000 85.906 C 262.615 89.286,276.184 88.489,281.000 84.437 C 281.440 84.066,282.300 83.514,282.911 83.209 C 284.306 82.511,289.187 77.574,289.936 76.102 C 290.245 75.496,290.815 74.640,291.203 74.200 C 291.592 73.760,292.201 72.380,292.556 71.133 C 292.912 69.886,293.403 68.799,293.647 68.718 C 295.054 68.249,294.905 54.063,293.476 52.485 C 293.130 52.102,292.676 51.031,292.468 50.105 C 292.260 49.180,291.620 47.864,291.045 47.181 C 290.470 46.498,290.000 45.699,290.000 45.405 C 290.000 44.135,280.860 36.000,279.433 36.000 C 279.277 36.000,278.216 35.558,277.075 35.018 C 273.345 33.253,267.146 32.787,261.036 33.813 M240.407 55.700 C 239.555 60.755,239.496 61.669,239.930 63.152 C 240.163 63.948,240.535 65.590,240.757 66.800 L 241.159 69.000 240.971 66.800 C 240.868 65.590,240.573 63.745,240.316 62.700 C 239.960 61.251,239.960 60.349,240.316 58.900 C 240.892 56.557,241.375 52.800,241.100 52.800 C 240.988 52.800,240.676 54.105,240.407 55.700  M -25 0 L -5 0 L -5 20 L -25 20 Z M 405 0 L 425 0 L 425 20 L 405 20 Z" stroke="none" fill="#ecbca4" fill-rule="evenodd" transform="translate(30,464)"></path><path id="path4" d=" M -25 0 L -5 0 L -5 20 L -25 20 Z M 405 0 L 425 0 L 425 20 L 405 20 Z" stroke="none" fill="#e8100e4" fill-rule="evenodd" transform="translate(490,464)"></path></g></svg>