<?xml version="1.0" encoding="UTF-8" standalone="no"?>
<svg
   xmlns:dc="http://purl.org/dc/elements/1.1/"
   xmlns:cc="http://creativecommons.org/ns#"
   xmlns:rdf="http://www.w3.org/1999/02/22-rdf-syntax-ns#"
   xmlns:svg="http://www.w3.org/2000/svg"
   xmlns="http://www.w3.org/2000/svg"
   viewBox="0 0 793.70135 1122.52"
   height="1122.52"
   width="793.70135"
   xml:space="preserve"
   id="svg2"
   version="1.1"><metadata
     id="metadata8"><rdf:RDF><cc:Work
         rdf:about=""><dc:format>image/svg+xml</dc:format><dc:type
           rdf:resource="http://purl.org/dc/dcmitype/StillImage" /></cc:Work></rdf:RDF></metadata><defs
     id="defs6"><linearGradient
       id="linearGradient38"
       spreadMethod="pad"
       gradientTransform="matrix(9.2333317,0,0,-9.2333317,302.49548,441.05777)"
       gradientUnits="userSpaceOnUse"
       y2="0"
       x2="1"
       y1="0"
       x1="0"><stop
         id="stop26"
         offset="0"
         style="stop-opacity:1;stop-color:#fff576" /><stop
         id="stop28"
         offset="0.13312686"
         style="stop-opacity:1;stop-color:#ffcb6e" /><stop
         id="stop30"
         offset="0.280899"
         style="stop-opacity:1;stop-color:#ffcb6e" /><stop
         id="stop32"
         offset="0.668539"
         style="stop-opacity:1;stop-color:#f6a079" /><stop
         id="stop34"
         offset="0.88764"
         style="stop-opacity:1;stop-color:#f18b79" /><stop
         id="stop36"
         offset="1"
         style="stop-opacity:1;stop-color:#ef7e79" /></linearGradient><clipPath
       id="clipPath48"
       clipPathUnits="userSpaceOnUse"><path
         id="path46"
         d="M 0,841.89 H 595.276 V 0 H 0 Z" /></clipPath><clipPath
       id="clipPath84"
       clipPathUnits="userSpaceOnUse"><path
         id="path82"
         d="M 0,841.89 H 595.276 V 0 H 0 Z" /></clipPath></defs><g
     transform="matrix(1.3333333,0,0,-1.3333333,0,1122.52)"
     id="g10"><path
       id="path12"
       style="fill:#686460;fill-opacity:1;fill-rule:nonzero;stroke:#ffffff;stroke-width:0.75;stroke-linecap:butt;stroke-linejoin:miter;stroke-miterlimit:10;stroke-dasharray:none;stroke-opacity:1"
       d="M 406.27,245.6 H 220.397 V 371.217 H 406.27 Z" /><g
       id="g14"><g
         id="g16"><g
           id="g22"><g
             id="g24"><path
               id="path40"
               style="fill:url(#linearGradient38);stroke:none"
               d="m 302.495,441.058 c 0,-2.55 2.068,-4.617 4.617,-4.617 v 0 c 2.55,0 4.616,2.067 4.616,4.617 v 0 c 0,2.549 -2.066,4.617 -4.616,4.617 v 0 c -2.549,0 -4.617,-2.068 -4.617,-4.617" /></g></g></g></g><g
       id="g42"><g
         clip-path="url(#clipPath48)"
         id="g44"><g
           transform="translate(311.7285,441.0577)"
           id="g50"><path
             id="path52"
             style="fill:none;stroke:#ffffff;stroke-width:0.75;stroke-linecap:butt;stroke-linejoin:miter;stroke-miterlimit:10;stroke-dasharray:none;stroke-opacity:1"
             d="m 0,0 c 0,-2.55 -2.066,-4.617 -4.616,-4.617 -2.55,0 -4.617,2.067 -4.617,4.617 0,2.55 2.067,4.617 4.617,4.617 C -2.066,4.617 0,2.55 0,0 Z" /></g></g></g><g
       transform="translate(297.5,443.9596)"
       id="g54"><path
         id="path56"
         style="fill:none;stroke:#ffffff;stroke-width:0.75;stroke-linecap:butt;stroke-linejoin:miter;stroke-miterlimit:10;stroke-dasharray:none;stroke-opacity:1"
         d="M 0,0 -2.302,5.181" /></g><g
       transform="translate(297.5,443.9596)"
       id="g58"><path
         id="path60"
         style="fill:none;stroke:#ffffff;stroke-width:0.75;stroke-linecap:butt;stroke-linejoin:miter;stroke-miterlimit:10;stroke-dasharray:none;stroke-opacity:1"
         d="M 0,0 2.303,5.181" /></g><g
       transform="translate(288.0625,422.7247)"
       id="g62"><path
         id="path64"
         style="fill:none;stroke:#ffffff;stroke-width:0.75;stroke-linecap:butt;stroke-linejoin:miter;stroke-miterlimit:10;stroke-dasharray:none;stroke-opacity:1"
         d="M 0,0 9.438,21.235 V 0 L 5.669,-5.669 0,0" /></g><g
       transform="translate(303.1689,402.0021)"
       id="g66"><path
         id="path68"
         style="fill:none;stroke:#ffffff;stroke-width:0.75;stroke-linecap:butt;stroke-linejoin:miter;stroke-miterlimit:10;stroke-dasharray:none;stroke-opacity:1"
         d="m 0,0 -0.097,0.611 -0.163,0.598 -0.227,0.576 -0.288,0.548 -0.346,0.514 -0.4,0.472 -0.448,0.428 -0.492,0.376 -0.53,0.319 -0.562,0.261 -0.587,0.198 -0.604,0.134 -0.615,0.068 h -0.62 L -6.594,5.035 -7.199,4.901 -7.785,4.703 -8.347,4.442 -8.877,4.123 -9.369,3.747 -9.817,3.319 -10.217,2.847 -10.563,2.333 -10.851,1.785 -11.078,1.209 -11.241,0.611 -11.338,0 V -9.066 H 0 V 0" /></g><g
       transform="translate(303.1689,392.9357)"
       id="g70"><path
         id="path72"
         style="fill:none;stroke:#ffffff;stroke-width:0.75;stroke-linecap:butt;stroke-linejoin:miter;stroke-miterlimit:10;stroke-dasharray:none;stroke-opacity:1"
         d="M 0,0 V 9.066 H 12.979 L 17.008,0 H 0" /></g><g
       transform="translate(274.8228,392.9357)"
       id="g74"><path
         id="path76"
         style="fill:none;stroke:#ffffff;stroke-width:0.75;stroke-linecap:butt;stroke-linejoin:miter;stroke-miterlimit:10;stroke-dasharray:none;stroke-opacity:1"
         d="M 0,0 4.029,9.066 H 17.008 V 0 H 0" /></g><g
       id="g78"><g
         clip-path="url(#clipPath84)"
         id="g80"><g
           transform="translate(291.8306,402.0021)"
           id="g86"><path
             id="path88"
             style="fill:none;stroke:#ffffff;stroke-width:0.75;stroke-linecap:butt;stroke-linejoin:miter;stroke-miterlimit:10;stroke-dasharray:none;stroke-opacity:1"
             d="m 0,0 h -12.979 c 1.869,4.204 3.737,8.407 5.605,12.61 1.202,2.704 2.404,5.409 3.606,8.113 l 5.669,-5.669 2.108,3.172 0.106,-0.223 0.969,1.137 0.148,-0.863 0.582,1.06 0.648,-0.623 0.302,0.362 2.674,-4.022 5.669,5.669 L 24.317,0 H 11.338 L 11.242,0.611 11.079,1.209 10.851,1.785 10.563,2.333 10.217,2.847 9.818,3.319 9.37,3.747 8.877,4.123 8.347,4.442 7.786,4.703 7.199,4.901 6.595,5.035 5.979,5.103 H 5.36 L 4.744,5.035 4.14,4.901 3.553,4.703 2.992,4.442 2.461,4.123 1.97,3.747 1.521,3.319 1.122,2.847 0.775,2.333 0.487,1.785 0.261,1.209 0.098,0.611 C 0.065,0.408 0.033,0.204 0,0" /></g><g
           transform="translate(269.1533,392.9357)"
           id="g90"><path
             id="path92"
             style="fill:none;stroke:#ffffff;stroke-width:0.75;stroke-linecap:butt;stroke-linejoin:miter;stroke-miterlimit:10;stroke-dasharray:none;stroke-opacity:1"
             d="M 0,0 H 56.693 Z" /></g><g
           transform="translate(297.5,443.9596)"
           id="g94"><path
             id="path96"
             style="fill:none;stroke:#ffffff;stroke-width:0.75;stroke-linecap:butt;stroke-linejoin:miter;stroke-miterlimit:10;stroke-dasharray:none;stroke-opacity:1"
             d="m 0,0 v -21.235 l 3.769,-5.669 5.669,5.669 L 0,0" /></g><g
           transform="translate(279.3564,396.4122)"
           id="g98"><path
             id="path100"
             style="fill:none;stroke:#ffffff;stroke-width:0.75;stroke-linecap:butt;stroke-linejoin:miter;stroke-miterlimit:10;stroke-dasharray:none;stroke-opacity:1"
             d="M 0,0 3.034,2.155 5.804,0 8.706,2.419" /></g><g
           transform="translate(315.8174,396.4122)"
           id="g102"><path
             id="path104"
             style="fill:none;stroke:#ffffff;stroke-width:0.75;stroke-linecap:butt;stroke-linejoin:miter;stroke-miterlimit:10;stroke-dasharray:none;stroke-opacity:1"
             d="M 0,0 -3.033,2.155 -5.804,0 -8.705,2.419" /></g></g></g></g></svg>