<?xml version="1.0" standalone="no"?>
<!DOCTYPE svg PUBLIC "-//W3C//DTD SVG 20010904//EN"
 "http://www.w3.org/TR/2001/REC-SVG-20010904/DTD/svg10.dtd">
<svg version="1.0" xmlns="http://www.w3.org/2000/svg"
 width="178.000000pt" height="178.000000pt" viewBox="0 0 178.000000 178.000000"
 preserveAspectRatio="xMidYMid meet">
<metadata>
Created by potrace 1.10, written by Peter Selinger 2001-2011
</metadata>
<g transform="translate(0.000000,178.000000) scale(0.100000,-0.100000)"
fill="#ffffff" stroke="none">
<path d="M812 1771 c-10 -6 -5 -25 22 -84 l34 -75 -162 -364 c-89 -200 -247
-555 -352 -790 l-189 -428 -82 0 c-67 0 -83 -3 -83 -15 0 -13 105 -15 885 -15
780 0 885 2 885 15 0 12 -16 15 -84 15 -71 0 -84 3 -89 17 -5 19 -4 15 -410
929 -153 342 -277 628 -277 637 0 8 14 45 31 82 23 49 29 69 20 78 -14 14 -15
13 -48 -62 l-28 -63 -24 58 c-29 70 -32 76 -49 65z m33 -845 c-14 -18 -25 -36
-25 -40 0 -3 -12 -25 -27 -47 l-26 -40 -78 77 -77 76 50 112 c27 61 84 190
126 286 l77 176 3 -284 2 -283 -25 -33z m199 289 l116 -260 -77 -77 -77 -78
-53 83 -53 82 1 285 c0 252 2 282 14 255 8 -16 66 -147 129 -290z m-269 -473
c1 2 11 19 23 39 12 19 30 44 42 54 20 18 20 18 20 -6 1 -23 2 -23 18 6 10 18
23 29 32 27 8 -2 32 -30 52 -62 l36 -59 89 90 88 89 130 -292 c72 -160 132
-296 133 -300 2 -4 -77 -8 -177 -8 l-180 0 -20 44 c-23 53 -85 101 -140 111
-84 14 -173 -32 -211 -110 l-22 -45 -178 0 -179 0 50 113 c28 61 87 196 132
299 l82 187 89 -89 c49 -50 90 -89 91 -88z m184 -322 c22 -11 50 -36 62 -57
22 -34 24 -52 28 -185 l3 -148 -161 0 -161 0 0 146 c0 170 9 200 74 239 50 30
103 32 155 5z m-269 -265 l0 -125 -244 0 -244 0 56 125 55 125 189 0 188 0 0
-125z m825 0 c30 -65 55 -120 55 -122 0 -2 -110 -3 -245 -3 l-245 0 0 125 0
125 190 -2 190 -3 55 -120z"/>
<path d="M358 174 c-30 -22 -45 -40 -41 -50 7 -19 9 -18 55 17 l39 32 39 -32
c21 -17 45 -31 52 -31 7 1 33 19 57 41 32 29 41 43 33 51 -8 8 -22 2 -52 -22
l-41 -33 -39 32 c-21 17 -42 31 -47 31 -4 0 -29 -16 -55 -36z"/>
<path d="M1184 199 c-4 -7 13 -29 42 -54 l49 -43 43 35 43 35 44 -31 c50 -36
51 -36 58 -17 4 10 -12 27 -44 50 -27 20 -52 36 -55 36 -3 0 -24 -14 -46 -31
l-39 -32 -39 32 c-44 35 -46 36 -56 20z"/>
<path d="M1111 1663 c-75 -37 -105 -140 -64 -219 61 -119 240 -106 288 20 52
136 -92 264 -224 199z m160 -49 c75 -72 42 -195 -59 -221 -69 -17 -152 52
-152 126 0 110 133 170 211 95z"/>
</g>
</svg>
